<svg width="197" height="136" viewBox="0 0 197 136" fill="none" xmlns="http://www.w3.org/2000/svg">
<path d="M188.834 135.102L193.489 131.687L188.203 129.363L188.834 135.102ZM85.4934 18.7138L85.5284 19.2125L85.4934 18.7138ZM65.3198 23.8355L65.8148 23.906L65.8148 23.906L65.3198 23.8355ZM191.105 131.179C202.794 102.312 194.071 72.8024 173.598 51.1634C153.13 29.5283 120.895 15.728 85.4584 18.215L85.5284 19.2125C120.668 16.7463 152.61 30.4341 172.872 51.8506C193.13 73.2632 201.693 102.368 190.178 130.803L191.105 131.179ZM85.4584 18.215C76.1503 18.8683 69.6651 20.3038 65.2631 22.0166L65.6257 22.9485C69.9034 21.2841 76.2814 19.8615 85.5284 19.2125L85.4584 18.215ZM65.2631 22.0166C61.0258 23.6654 58.6671 25.5919 57.6163 27.3767C56.5567 29.1764 56.8212 30.8906 57.9534 31.8207C59.0687 32.737 60.8199 32.715 62.3608 31.4925C63.8987 30.2724 65.2515 27.8642 65.8148 23.906L64.8248 23.7651C64.2816 27.5819 63.0027 29.7067 61.7393 30.7091C60.4789 31.7091 59.2588 31.599 58.5882 31.0481C57.9343 30.5109 57.5981 29.3786 58.478 27.884C59.3668 26.3744 61.4879 24.5586 65.6257 22.9485L65.2631 22.0166ZM22.7666 1.14926C18.8032 1.89746 15.6658 2.85655 11.9498 4.56074L12.3666 5.46971C16.0031 3.80199 19.0621 2.86624 22.9521 2.13191L22.7666 1.14926ZM65.8148 23.906C65.8819 23.4351 65.9247 22.9674 65.944 22.5034L64.9449 22.4618C64.9269 22.8923 64.8872 23.3268 64.8248 23.7651L65.8148 23.906ZM65.944 22.5034C66.2359 15.4961 61.1959 9.48732 53.9471 5.48557C46.6808 1.4741 37.0694 -0.602704 27.9166 0.29673L28.0144 1.29194C36.9688 0.411996 46.3773 2.44878 53.4638 6.36102C60.568 10.283 65.2137 16.008 64.9449 22.4618L65.944 22.5034ZM1.10709 14.0653C2.66259 11.6794 4.48053 10.0162 5.90908 8.95013C6.62297 8.41736 7.23816 8.0348 7.67226 7.78664C7.88925 7.6626 8.06079 7.57226 8.17655 7.51362C8.23442 7.4843 8.27832 7.46292 8.30697 7.44923C8.32129 7.44238 8.3318 7.43746 8.33833 7.43442C8.34159 7.43291 8.34386 7.43187 8.34511 7.43129C8.34574 7.431 8.34611 7.43084 8.34623 7.43078C8.34628 7.43076 8.34628 7.43076 8.34621 7.43079C8.34617 7.43081 8.34607 7.43085 8.34605 7.43086C8.34594 7.43091 8.3458 7.43097 8.13999 6.9753C7.93417 6.51963 7.934 6.5197 7.93382 6.51978C7.93374 6.51982 7.93354 6.51991 7.93337 6.51998C7.93304 6.52013 7.93265 6.52031 7.93219 6.52052C7.93127 6.52094 7.93009 6.52148 7.92866 6.52213C7.92579 6.52345 7.92189 6.52524 7.91699 6.52752C7.9072 6.53207 7.89338 6.53855 7.8757 6.54701C7.84035 6.5639 7.78956 6.58866 7.72465 6.62155C7.59483 6.68731 7.40844 6.7856 7.17598 6.91848C6.71117 7.18419 6.06138 7.58869 5.31098 8.1487C3.81094 9.26815 1.903 11.0134 0.269398 13.5191L1.10709 14.0653Z" fill="#BBC5FF"/>
</svg>
