<svg width="154" height="152" viewBox="0 0 154 152" fill="none" xmlns="http://www.w3.org/2000/svg">
<path d="M153.361 6.25598L149.292 2.16072L147.78 7.7328L153.361 6.25598ZM18.1649 85.4676L18.6498 85.3457L18.1649 85.4676ZM26.7556 101.15L26.8019 100.653L26.8019 100.653L26.7556 101.15ZM149.132 4.59041C111.582 -4.98831 75.2729 1.37045 50.0661 17.0571C24.8568 32.7452 10.6994 57.8151 17.68 85.5894L18.6498 85.3457C11.8046 58.11 25.6401 33.4356 50.5945 17.9061C75.5515 2.37495 111.577 -3.95757 148.885 5.55939L149.132 4.59041ZM17.68 85.5894C19.5019 92.8385 22.0096 97.9029 24.6452 101.347L25.4394 100.739C22.9043 97.4265 20.4466 92.4944 18.6498 85.3457L17.68 85.5894ZM24.6452 101.347C27.1882 104.67 29.8541 106.488 32.1345 107.291C33.2734 107.692 34.3219 107.841 35.2115 107.791C36.0935 107.742 36.8546 107.494 37.3758 107.061C37.9162 106.612 38.1843 105.967 38.0221 105.252C37.8681 104.573 37.3466 103.919 36.5224 103.335C34.8702 102.165 31.7775 101.115 26.8019 100.653L26.7093 101.648C31.6207 102.105 34.5048 103.131 35.9444 104.151C36.6661 104.662 36.9692 105.131 37.0468 105.473C37.1162 105.779 37.0228 106.054 36.7368 106.292C36.4317 106.545 35.9015 106.751 35.1555 106.793C34.4171 106.834 33.5009 106.712 32.4666 106.348C30.4005 105.621 27.8858 103.936 25.4394 100.739L24.6452 101.347ZM2.94781 134.101C4.32008 137.2 5.86944 139.652 8.41245 142.553L9.16434 141.893C6.68512 139.066 5.1917 136.699 3.86217 133.696L2.94781 134.101ZM26.8019 100.653C26.2138 100.598 25.6325 100.562 25.0582 100.543L25.0264 101.543C25.5801 101.56 26.1412 101.595 26.7093 101.648L26.8019 100.653ZM25.0582 100.543C7.73678 99.9912 -2.94833 115.701 1.31682 130.075L2.27551 129.791C-1.79991 116.056 8.40144 101.013 25.0264 101.543L25.0582 100.543ZM21.2222 150.72C18.0253 149.482 15.7246 148.047 14.228 146.928C13.4797 146.368 12.9323 145.887 12.5744 145.549C12.3955 145.38 12.264 145.246 12.1785 145.157C12.1357 145.112 12.1044 145.078 12.0845 145.056C12.0745 145.045 12.0674 145.037 12.0631 145.032C12.0609 145.03 12.0594 145.028 12.0587 145.027C12.0583 145.027 12.0581 145.026 12.058 145.026C12.058 145.026 12.0581 145.026 12.0581 145.027C12.0582 145.027 12.0582 145.027 12.0583 145.027C12.0584 145.027 12.0585 145.027 11.6804 145.354C11.3024 145.681 11.3026 145.682 11.3027 145.682C11.3028 145.682 11.3029 145.682 11.303 145.682C11.3033 145.682 11.3036 145.683 11.3039 145.683C11.3046 145.684 11.3054 145.685 11.3064 145.686C11.3085 145.688 11.3113 145.692 11.3147 145.695C11.3217 145.703 11.3315 145.714 11.3441 145.728C11.3695 145.756 11.4063 145.796 11.4548 145.847C11.5518 145.949 11.6956 146.094 11.8875 146.276C12.2713 146.638 12.848 147.144 13.6291 147.729C15.1915 148.897 17.5714 150.379 20.8612 151.652L21.2222 150.72Z" fill="#4964FE"/>
</svg>
