<svg width="86" height="131" viewBox="0 0 86 131" fill="none" xmlns="http://www.w3.org/2000/svg">
<path d="M18.9246 130.292L13.7342 127.764L18.519 124.533L18.9246 130.292ZM40.3029 21.9049L40.3474 22.4029L40.3474 22.4029L40.3029 21.9049ZM52.7372 23.9867L52.2823 24.1942L52.2823 24.1942L52.7372 23.9867ZM15.9891 126.838C1.35173 104.123 -2.58567 78.7015 2.12466 58.4866C6.83581 38.2683 20.2288 23.1945 40.2585 21.4069L40.3474 22.4029C20.8656 24.1416 7.74151 38.7879 3.09856 58.7136C-1.54521 78.6428 2.32631 103.789 16.8296 126.296L15.9891 126.838ZM40.2585 21.4069C45.5227 20.937 49.4971 21.4324 52.4246 22.3959L52.112 23.3458C49.3416 22.434 45.5085 21.9423 40.3474 22.4029L40.2585 21.4069ZM52.4246 22.3959C55.2491 23.3256 57.1043 24.6933 58.1886 26.0516C58.7299 26.7296 59.0826 27.4102 59.2619 28.0355C59.4391 28.6535 59.4558 29.252 59.2738 29.7383C59.0831 30.2479 58.6734 30.6181 58.098 30.683C57.5595 30.7437 56.9665 30.5268 56.3716 30.1027C55.178 29.2518 53.7484 27.4083 52.2823 24.1942L53.1921 23.7792C54.6315 26.9346 55.9706 28.5888 56.9521 29.2884C57.4447 29.6396 57.7908 29.7113 57.986 29.6893C58.1441 29.6715 58.2625 29.5878 58.3372 29.3879C58.4207 29.1648 58.4403 28.7982 58.3006 28.3111C58.1631 27.8314 57.8792 27.2669 57.4071 26.6754C56.4646 25.4947 54.7857 24.2258 52.112 23.3458L52.4246 22.3959ZM69.1653 0.345214C71.5623 0.541326 73.569 1.0077 76.1031 2.03344L75.7279 2.96038C73.2835 1.97095 71.3756 1.52939 69.0838 1.34188L69.1653 0.345214ZM52.2823 24.1942C52.1082 23.8126 51.9481 23.4312 51.8016 23.0503L52.735 22.6914C52.8741 23.0532 53.0263 23.4159 53.1921 23.7792L52.2823 24.1942ZM51.8016 23.0503C47.3792 11.5499 55.4297 0.691994 66.0875 0.192901L66.1342 1.19181C56.1427 1.6597 48.5627 11.8415 52.735 22.6914L51.8016 23.0503ZM84.3443 8.89994C82.7882 7.06971 81.3097 5.87948 80.2273 5.14952C79.686 4.78447 79.2437 4.53445 78.9401 4.37708C78.7884 4.2984 78.6714 4.2429 78.5941 4.20777C78.5554 4.19021 78.5267 4.17774 78.5085 4.17002C78.4995 4.16617 78.493 4.16349 78.4893 4.16196C78.4874 4.1612 78.4863 4.16072 78.4858 4.16052C78.4855 4.16042 78.4854 4.1604 78.4855 4.16044C78.4856 4.16046 78.4857 4.16049 78.4858 4.16055C78.4859 4.16058 78.486 4.16063 78.4861 4.16064C78.4862 4.1607 78.4864 4.16076 78.671 3.69612C78.8557 3.23147 78.8559 3.23154 78.8561 3.23162C78.8562 3.23165 78.8564 3.23173 78.8565 3.23179C78.8568 3.23192 78.8572 3.23206 78.8576 3.23222C78.8584 3.23254 78.8594 3.23293 78.8605 3.2334C78.8628 3.23433 78.8658 3.23555 78.8695 3.23706C78.8769 3.24009 78.887 3.24429 78.8997 3.24972C78.9253 3.26058 78.9615 3.27633 79.0077 3.29734C79.1002 3.33935 79.2328 3.40239 79.4004 3.4893C79.7357 3.66313 80.2113 3.93254 80.7864 4.32044C81.937 5.09637 83.4856 6.34612 85.1062 8.25219L84.3443 8.89994Z" fill="#4964FE"/>
</svg>
