<svg width="180" height="146" viewBox="0 0 180 146" fill="none" xmlns="http://www.w3.org/2000/svg">
<path d="M179.624 124.316L177.394 129.641L173.897 125.047L179.624 124.316ZM33.4962 73.5841L33.9893 73.5012L33.4962 73.5841ZM34.3624 54.1966L34.5693 54.6519L34.5693 54.6519L34.3624 54.1966ZM176.332 127.45C120.761 167.84 43.7483 137.606 33.0031 73.667L33.9893 73.5012C44.6016 136.649 120.725 166.63 175.744 126.641L176.332 127.45ZM33.0031 73.667C31.5958 65.2933 31.651 59.1202 32.4705 54.6758L33.4539 54.8571C32.6617 59.1538 32.5948 65.2039 33.9893 73.5012L33.0031 73.667ZM32.4705 54.6758C33.2605 50.3911 34.7674 47.6822 36.3917 46.177C38.0013 44.6853 39.8021 44.3322 41.0368 45.0044C41.6576 45.3424 42.0886 45.9243 42.2259 46.6589C42.3618 47.3854 42.2052 48.2232 41.7371 49.0982C40.805 50.8404 38.5944 52.823 34.5693 54.6519L34.1556 53.7414C38.0891 51.9542 40.0717 50.0912 40.8553 48.6265C41.2451 47.8979 41.3269 47.2918 41.243 46.8426C41.1605 46.4014 40.9133 46.0757 40.5586 45.8826C39.8423 45.4927 38.503 45.5838 37.0714 46.9105C35.6544 48.2236 34.2191 50.7073 33.4539 54.8571L32.4705 54.6758ZM0.875038 24.6366C0.772548 20.9058 1.07998 17.8279 2.04385 13.9928L3.01369 14.2365C2.07281 17.9802 1.7746 20.9667 1.87466 24.6091L0.875038 24.6366ZM34.5693 54.6519C34.0918 54.8688 33.6124 55.0636 33.1317 55.2369L32.7927 54.2961C33.2479 54.132 33.7024 53.9474 34.1556 53.7414L34.5693 54.6519ZM33.1317 55.2369C25.8759 57.8517 18.4083 55.5295 12.5151 50.5217C6.62357 45.5153 2.25021 37.787 1.13519 29.4429L2.12638 29.3105C3.2085 37.4083 7.45872 44.9127 13.1626 49.7596C18.8647 54.6051 25.9643 56.7569 32.7927 54.2961L33.1317 55.2369ZM9.56661 1.44709C7.3875 3.63069 6.03742 5.7943 5.23331 7.40717C4.83128 8.21357 4.56599 8.88177 4.40203 9.34508C4.32007 9.5767 4.26347 9.75699 4.2278 9.87759C4.20997 9.93789 4.19737 9.98325 4.18945 10.0126C4.1855 10.0273 4.18271 10.038 4.18102 10.0446C4.18018 10.0478 4.17961 10.0501 4.17931 10.0513C4.17916 10.0519 4.17908 10.0522 4.17906 10.0523C4.17905 10.0523 4.17905 10.0523 4.17908 10.0522C4.17909 10.0522 4.17912 10.052 4.17913 10.052C4.17916 10.0519 4.1792 10.0517 3.69354 9.93285C3.20788 9.81396 3.20792 9.81377 3.20797 9.81357C3.208 9.81348 3.20805 9.81326 3.20809 9.81308C3.20818 9.81271 3.20829 9.81228 3.20841 9.81179C3.20866 9.8108 3.20897 9.80954 3.20935 9.80801C3.21012 9.80496 3.21116 9.80086 3.21248 9.79571C3.21513 9.78541 3.21891 9.77094 3.22389 9.75243C3.23387 9.71542 3.24867 9.66225 3.26886 9.59397C3.30924 9.45743 3.37122 9.26044 3.45932 9.01147C3.63551 8.51361 3.91637 7.80743 4.33837 6.96099C5.18232 5.2682 6.59183 3.01233 8.85877 0.740708L9.56661 1.44709Z" fill="#4964FE"/>
</svg>
