<svg width="86" height="131" viewBox="0 0 86 131" fill="none" xmlns="http://www.w3.org/2000/svg">
<path d="M66.427 130.292L71.6174 127.764L66.8325 124.533L66.427 130.292ZM45.0487 21.9049L45.0042 22.4029L45.0042 22.4029L45.0487 21.9049ZM32.6144 23.9867L33.0693 24.1942L33.0693 24.1942L32.6144 23.9867ZM69.3625 126.838C83.9998 104.123 87.9372 78.7015 83.2269 58.4866C78.5158 38.2683 65.1227 23.1945 45.0931 21.4069L45.0042 22.4029C64.486 24.1416 77.6101 38.7879 82.253 58.7136C86.8968 78.6428 83.0253 103.789 68.5219 126.296L69.3625 126.838ZM45.0931 21.4069C39.8289 20.937 35.8545 21.4324 32.9269 22.3959L33.2396 23.3458C36.01 22.434 39.843 21.9423 45.0042 22.4029L45.0931 21.4069ZM32.9269 22.3959C30.1025 23.3256 28.2472 24.6933 27.163 26.0516C26.6217 26.7296 26.269 27.4102 26.0897 28.0355C25.9125 28.6535 25.8958 29.252 26.0777 29.7383C26.2684 30.2479 26.6781 30.6181 27.2536 30.683C27.7921 30.7437 28.3851 30.5268 28.98 30.1027C30.1736 29.2518 31.6031 27.4083 33.0693 24.1942L32.1595 23.7792C30.7201 26.9346 29.381 28.5888 28.3995 29.2884C27.9069 29.6396 27.5608 29.7113 27.3656 29.6893C27.2075 29.6715 27.0891 29.5878 27.0143 29.3879C26.9308 29.1648 26.9113 28.7982 27.0509 28.3111C27.1885 27.8314 27.4724 27.2669 27.9445 26.6754C28.887 25.4947 30.5659 24.2258 33.2396 23.3458L32.9269 22.3959ZM16.1862 0.345214C13.7892 0.541326 11.7825 1.0077 9.24848 2.03344L9.62368 2.96038C12.0681 1.97095 13.976 1.52939 16.2678 1.34188L16.1862 0.345214ZM33.0693 24.1942C33.2434 23.8126 33.4035 23.4312 33.5499 23.0503L32.6166 22.6914C32.4775 23.0532 32.3252 23.4159 32.1595 23.7792L33.0693 24.1942ZM33.5499 23.0503C37.9723 11.5499 29.9218 0.691994 19.2641 0.192901L19.2173 1.19181C29.2088 1.6597 36.7888 11.8415 32.6166 22.6914L33.5499 23.0503ZM1.00721 8.89994C2.56335 7.06971 4.04187 5.87948 5.12425 5.14952C5.66554 4.78447 6.10789 4.53445 6.41141 4.37708C6.56317 4.2984 6.6802 4.2429 6.75751 4.20777C6.79616 4.19021 6.82487 4.17774 6.84303 4.17002C6.85211 4.16617 6.85855 4.16349 6.86227 4.16196C6.86413 4.1612 6.86531 4.16072 6.8658 4.16052C6.86604 4.16042 6.86612 4.1604 6.86602 4.16044C6.86596 4.16046 6.86587 4.16049 6.86573 4.16055C6.86566 4.16058 6.86553 4.16063 6.8655 4.16064C6.86535 4.1607 6.86519 4.16076 6.68052 3.69612C6.49585 3.23147 6.49567 3.23154 6.49548 3.23162C6.4954 3.23165 6.4952 3.23173 6.49504 3.23179C6.49473 3.23192 6.49437 3.23206 6.49397 3.23222C6.49317 3.23254 6.4922 3.23293 6.49105 3.2334C6.48875 3.23433 6.48575 3.23555 6.48207 3.23706C6.4747 3.24009 6.4646 3.24429 6.45182 3.24972C6.42628 3.26058 6.39007 3.27633 6.34384 3.29734C6.25137 3.33935 6.11878 3.40239 5.95114 3.4893C5.61586 3.66313 5.14029 3.93254 4.56512 4.32044C3.41457 5.09637 1.86597 6.34612 0.245363 8.25219L1.00721 8.89994Z" fill="#4964FE"/>
</svg>
