<svg width="20" height="20" viewBox="0 0 20 20" fill="none" xmlns="http://www.w3.org/2000/svg">
<path fill-rule="evenodd" clip-rule="evenodd" d="M20 10C20 15.5228 15.5228 20 10 20C4.47716 20 0 15.5228 0 10C0 4.47716 4.47716 0 10 0C15.5228 0 20 4.47716 20 10ZM7.16631 13.9793H5.2256C4.81781 13.9793 4.61635 13.9793 4.49351 13.9007C4.36087 13.8147 4.27978 13.6722 4.26995 13.515C4.2626 13.37 4.36331 13.1932 4.56476 12.8394L9.35663 4.39308C9.56053 4.0344 9.66371 3.85509 9.79391 3.78875C9.93394 3.71753 10.101 3.71753 10.241 3.78875C10.3712 3.85509 10.4744 4.0344 10.6783 4.39308L11.6634 6.11271L11.6684 6.12148C11.8887 6.50628 12.0003 6.70139 12.0491 6.90618C12.1031 7.12974 12.1031 7.36556 12.0491 7.58912C12 7.79549 11.8894 7.99203 11.6658 8.38263L9.14881 12.8321L9.14229 12.8435C8.92059 13.2314 8.80825 13.428 8.65255 13.5764C8.48306 13.7385 8.27917 13.8564 8.05561 13.9228C7.85172 13.9793 7.62325 13.9793 7.16631 13.9793ZM12.0673 13.9795H14.8482C15.2584 13.9795 15.4648 13.9795 15.5876 13.8985C15.7202 13.8125 15.8038 13.6675 15.8112 13.5103C15.8183 13.3701 15.7197 13.2001 15.5266 12.8669C15.52 12.8555 15.5133 12.844 15.5065 12.8323L14.1136 10.4494L14.0978 10.4226C13.902 10.0915 13.8032 9.92439 13.6764 9.85978C13.5363 9.78853 13.3717 9.78853 13.2317 9.85978C13.104 9.92609 13.0008 10.1005 12.7969 10.4518L11.4089 12.8347L11.4041 12.8429C11.201 13.1937 11.0994 13.3689 11.1067 13.5128C11.1166 13.67 11.1976 13.8149 11.3303 13.9009C11.4507 13.9795 11.657 13.9795 12.0673 13.9795Z" fill="#4964FE"/>
</svg>
