<svg width="76" height="76" viewBox="0 0 76 76" fill="none" xmlns="http://www.w3.org/2000/svg">
<path fill-rule="evenodd" clip-rule="evenodd" d="M76 38C76 58.9868 58.9868 76 38 76C17.0132 76 0 58.9868 0 38C0 17.0132 17.0132 0 38 0C58.9868 0 76 17.0132 76 38ZM27.232 53.1213H19.8573C18.3077 53.1213 17.5421 53.1213 17.0753 52.8226C16.5713 52.4958 16.2632 51.9544 16.2258 51.357C16.1979 50.8062 16.5806 50.134 17.3461 48.7898L35.5552 16.6937C36.33 15.3307 36.7221 14.6493 37.2169 14.3972C37.749 14.1266 38.3838 14.1266 38.9159 14.3972C39.4106 14.6493 39.8027 15.3307 40.5775 16.6937L44.3209 23.2283L44.3401 23.2616C45.1769 24.7238 45.6013 25.4653 45.7865 26.2435C45.9919 27.093 45.9919 27.9891 45.7865 28.8387C45.5999 29.6228 45.1797 30.3697 44.3302 31.854L34.7655 48.7618L34.7407 48.8052C33.8982 50.2793 33.4714 51.0264 32.8797 51.5904C32.2356 52.2065 31.4608 52.6545 30.6113 52.9066C29.8365 53.1213 28.9683 53.1213 27.232 53.1213ZM45.8556 53.1221H56.423C57.982 53.1221 58.7661 53.1221 59.2329 52.8141C59.7369 52.4873 60.0543 51.9365 60.0824 51.3391C60.1094 50.8065 59.7349 50.1604 59.0011 48.8943C58.9761 48.8511 58.9506 48.8073 58.9248 48.7626L53.6318 39.7076L53.5715 39.6058C52.8278 38.3478 52.4521 37.7127 51.9701 37.4672C51.438 37.1964 50.8126 37.1964 50.2805 37.4672C49.795 37.7191 49.4029 38.382 48.6281 39.7169L43.3538 48.7719L43.3357 48.8032C42.5636 50.1359 42.1778 50.8019 42.2056 51.3485C42.243 51.9459 42.551 52.4967 43.0551 52.8234C43.5125 53.1221 44.2966 53.1221 45.8556 53.1221Z" fill="#F5AC6B"/>
</svg>
