<svg width="24" height="24" viewBox="0 0 24 24" fill="none" xmlns="http://www.w3.org/2000/svg">
<path d="M12 2.25C11.4615 2.25 11.025 2.68652 11.025 3.225V5.175C11.025 5.71348 11.4615 6.15 12 6.15C12.5385 6.15 12.975 5.71348 12.975 5.175V3.225C12.975 2.68652 12.5385 2.25 12 2.25Z" fill="#FEC90C"/>
<path d="M12 17.85C11.4615 17.85 11.025 18.2865 11.025 18.825V20.775C11.025 21.3135 11.4615 21.75 12 21.75C12.5385 21.75 12.975 21.3135 12.975 20.775V18.825C12.975 18.2865 12.5385 17.85 12 17.85Z" fill="#FEC90C"/>
<path d="M20.775 11.025C21.3135 11.025 21.75 11.4615 21.75 12C21.75 12.5385 21.3135 12.975 20.775 12.975H18.825C18.2865 12.975 17.85 12.5385 17.85 12C17.85 11.4615 18.2865 11.025 18.825 11.025H20.775Z" fill="#FEC90C"/>
<path d="M6.15 12C6.15 11.4615 5.71348 11.025 5.175 11.025H3.225C2.68652 11.025 2.25 11.4615 2.25 12C2.25 12.5385 2.68652 12.975 3.225 12.975H5.175C5.71348 12.975 6.15 12.5385 6.15 12Z" fill="#FEC90C"/>
<path d="M17.5155 5.1058C17.8962 4.72504 18.5136 4.72504 18.8943 5.1058C19.2751 5.48657 19.2751 6.1039 18.8943 6.48466L17.5155 7.86352C17.1347 8.24428 16.5174 8.24428 16.1366 7.86352C15.7559 7.48276 15.7559 6.86542 16.1366 6.48466L17.5155 5.1058Z" fill="#FEC90C"/>
<path d="M7.86346 16.1367C7.4827 15.7559 6.86537 15.7559 6.48461 16.1367L5.10575 17.5155C4.72499 17.8963 4.72499 18.5136 5.10575 18.8944C5.48651 19.2752 6.10385 19.2752 6.48461 18.8944L7.86346 17.5155C8.24423 17.1348 8.24423 16.5174 7.86346 16.1367Z" fill="#FEC90C"/>
<path d="M18.8943 17.5155C19.2751 17.8962 19.2751 18.5136 18.8943 18.8943C18.5136 19.2751 17.8962 19.2751 17.5155 18.8943L16.1366 17.5155C15.7558 17.1347 15.7558 16.5174 16.1366 16.1366C16.5174 15.7559 17.1347 15.7559 17.5155 16.1366L18.8943 17.5155Z" fill="#FEC90C"/>
<path d="M7.86344 7.86346C8.2442 7.4827 8.2442 6.86537 7.86344 6.48461L6.48458 5.10575C6.10382 4.72499 5.48648 4.72499 5.10572 5.10575C4.72496 5.48651 4.72496 6.10385 5.10572 6.48461L6.48458 7.86346C6.86534 8.24423 7.48268 8.24423 7.86344 7.86346Z" fill="#FEC90C"/>
<path d="M16 12C16 14.2091 14.2091 16 12 16C9.79086 16 8 14.2091 8 12C8 9.79086 9.79086 8 12 8C14.2091 8 16 9.79086 16 12Z" fill="#FEC90C"/>
</svg>
