<svg width="42" height="42" viewBox="0 0 42 42" fill="none" xmlns="http://www.w3.org/2000/svg">
<g filter="url(#filter0_f_557_51829)">
<circle cx="21" cy="21" r="11" stroke="#FEC90C" stroke-opacity="0.7" stroke-width="2"/>
</g>
<circle cx="21" cy="21" r="11" stroke="#FEC90C" stroke-opacity="0.8" stroke-width="2"/>
<circle cx="21" cy="21" r="10.25" stroke="#ECF1F9" stroke-width="0.5"/>
<path d="M16.2173 17.6069L18.0663 15.8844C18.4365 15.5396 18.9236 15.3478 19.4296 15.3478H21.0673M16.2173 17.6069L19.7201 20.87M16.2173 17.6069H18.6423M25.7826 17.6069L23.9336 15.8844C23.5634 15.5396 23.0763 15.3478 22.5703 15.3478H21.0673M25.7826 17.6069L22.2798 20.87M25.7826 17.6069H23.4923M18.6423 17.6069L21.0673 15.3478M18.6423 17.6069L21.0673 19.866M21.0673 15.3478L23.4923 17.6069M23.4923 17.6069L21.0673 19.866M21.0673 19.866V25.1372M21.0673 27.5217V26.7687M21.0673 26.7687L21.8756 26.0157M21.0673 26.7687V25.1372M22.8187 25.1372L21.8756 26.0157M21.8756 26.0157L21.0673 25.1372M21.8756 26.0157L22.8187 26.8942M21.1925 17.7413V17.7413C21.2705 17.6687 21.2705 17.5451 21.1925 17.4725V17.4725C21.122 17.4068 21.0127 17.4068 20.9421 17.4725V17.4725C20.8642 17.5451 20.8642 17.6687 20.9421 17.7413V17.7413C21.0127 17.807 21.122 17.807 21.1925 17.7413Z" stroke="#FEC90C" stroke-linecap="round" stroke-linejoin="round"/>
<defs>
<filter id="filter0_f_557_51829" x="0" y="0" width="42" height="42" filterUnits="userSpaceOnUse" color-interpolation-filters="sRGB">
<feFlood flood-opacity="0" result="BackgroundImageFix"/>
<feBlend mode="normal" in="SourceGraphic" in2="BackgroundImageFix" result="shape"/>
<feGaussianBlur stdDeviation="4.5" result="effect1_foregroundBlur_557_51829"/>
</filter>
</defs>
</svg>
