<svg width="32" height="42" viewBox="0 0 32 42" fill="none" xmlns="http://www.w3.org/2000/svg">
<path d="M1 8.42268L7.83689 1.58579C8.21197 1.21071 8.72067 1 9.25111 1H15.8454M1 8.42268L11.7216 19.1443M1 8.42268H8.42268M30.2783 8.42268L23.4415 1.58579C23.0664 1.21071 22.5577 1 22.0272 1H15.8454M30.2783 8.42268L19.5567 19.1443M30.2783 8.42268H23.268M8.42268 8.42268L15.8454 1M8.42268 8.42268L15.8454 15.8454M15.8454 1L23.268 8.42268M23.268 8.42268L15.8454 15.8454M15.8454 15.8454V33.1649M15.8454 41V38.5258M15.8454 38.5258L18.3196 36.0515M15.8454 38.5258V33.1649M21.2062 33.1649L18.3196 36.0515M18.3196 36.0515L15.8454 33.1649M18.3196 36.0515L21.2062 38.9381M16.2577 8.83505V8.83505C16.4855 8.60731 16.4855 8.23806 16.2577 8.01031V8.01031C16.03 7.78256 15.6607 7.78256 15.433 8.01031V8.01031C15.2052 8.23806 15.2052 8.60731 15.433 8.83505V8.83505C15.6607 9.0628 16.03 9.0628 16.2577 8.83505Z" stroke="#FEC90C" stroke-width="2" stroke-linecap="round" stroke-linejoin="round"/>
</svg>
