<svg width="24" height="23" viewBox="0 0 24 23" fill="none" xmlns="http://www.w3.org/2000/svg">
<path d="M23.4437 0L13.1455 7.61991L15.0605 3.12928L23.4437 0Z" fill="#080F20"/>
<path d="M0.580359 0.00878906L8.94108 3.12963L10.7594 7.67913L0.580359 0.00878906ZM19.2993 16.2052L23.851 16.2918L22.2602 21.6958L16.7062 20.1666L19.2993 16.2052ZM4.70048 16.2052L7.28395 20.1666L1.7393 21.6959L0.158203 16.2918L4.70048 16.2052Z" fill="#E27625"/>
<path d="M10.5119 6.52064L10.6979 12.5284L5.13184 12.2752L6.71509 9.88664L6.73515 9.86367L10.5119 6.52064ZM13.4296 6.45361L17.264 9.86386L17.2839 9.88674L18.8671 12.2753L13.3023 12.5284L13.4296 6.45361ZM7.44662 16.223L10.4858 18.591L6.95537 20.2955L7.44662 16.223ZM16.5531 16.2226L17.0341 20.2956L13.5136 18.5909L16.5531 16.2226Z" fill="#E27625"/>
<path d="M13.5918 18.3677L17.1644 20.0976L13.8412 21.6769L13.8757 20.6331L13.5918 18.3677ZM10.4074 18.3684L10.1347 20.616L10.1571 21.6756L6.82617 20.0976L10.4074 18.3684Z" fill="#D5BFB2"/>
<path d="M9.3757 13.3125L10.3093 15.2745L7.13086 14.3434L9.3757 13.3125ZM14.6243 13.3127L16.8797 14.3434L13.6909 15.2742L14.6243 13.3127Z" fill="#233447"/>
<path d="M7.69032 16.2027L7.17657 20.4252L4.42285 16.295L7.69032 16.2027ZM16.3106 16.2028L19.5782 16.295L16.8142 20.4254L16.3106 16.2028ZM18.9484 12.0361L16.5704 14.4597L14.7369 13.6218L13.8592 15.4672L13.2837 12.2939L18.9484 12.0361ZM5.05116 12.0361L10.7169 12.2939L10.1414 15.4672L9.26344 13.6221L7.43973 14.4598L5.05116 12.0361Z" fill="#CC6228"/>
<path d="M4.89062 11.5391L7.58106 14.2691L7.67425 16.9644L4.89062 11.5391ZM19.1122 11.5342L16.3235 16.9691L16.4285 14.2691L19.1122 11.5342ZM10.5851 11.7054L10.6934 12.3869L10.9609 14.0848L10.7889 19.2997L9.97563 15.1105L9.97534 15.0671L10.5851 11.7054ZM13.4136 11.6959L14.025 15.0671L14.0247 15.1105L13.2093 19.3102L13.1771 18.2597L13.0499 14.0539L13.4136 11.6959Z" fill="#E27525"/>
<path d="M16.6672 14.1606L16.5762 16.5023L13.738 18.7136L13.1642 18.3082L13.8074 14.9956L16.6672 14.1606ZM7.3418 14.1606L10.1917 14.9956L10.8348 18.3082L10.2611 18.7136L7.4228 16.5021L7.3418 14.1606Z" fill="#F5841F"/>
<path d="M6.2832 19.5806L9.91433 21.3011L9.89895 20.5663L10.2028 20.2996H13.7966L14.1114 20.5654L14.0882 21.2996L17.6963 19.5849L15.9406 21.0358L13.8176 22.4938H10.1736L8.05208 21.0298L6.2832 19.5806Z" fill="#C0AC9D"/>
<path d="M13.3312 18.1387L13.8446 18.5014L14.1454 20.9018L13.71 20.5342H10.2904L9.86328 20.9092L10.1543 18.5016L10.6678 18.1387H13.3312Z" fill="#161616"/>
<path d="M22.7638 0.210938L24 3.91941L23.228 7.66913L23.7777 8.09316L23.0338 8.66072L23.5929 9.09253L22.8526 9.76669L23.3071 10.0958L22.1009 11.5045L17.1537 10.0641L17.1109 10.0411L13.5458 7.03378L22.7638 0.210938ZM1.23619 0.210938L10.4543 7.03378L6.88912 10.0411L6.84628 10.0641L1.89909 11.5045L0.692906 10.0958L1.14703 9.76697L0.407156 9.09253L0.965156 8.66119L0.210094 8.09203L0.780563 7.66772L0 3.91959L1.23619 0.210938Z" fill="#763E1A"/>
<path d="M16.9122 9.7493L22.154 11.2755L23.857 16.5241H19.3641L16.2685 16.5631L18.5198 12.1749L16.9122 9.7493ZM7.08867 9.7493L5.48076 12.1749L7.73235 16.5631L4.63813 16.5241H0.15332L1.84673 11.2756L7.08867 9.7493ZM15.3177 3.10449L13.8515 7.0644L13.5404 12.4138L13.4213 14.0905L13.4118 18.3737H10.5889L10.5797 14.0986L10.4603 12.4124L10.149 7.0644L8.68307 3.10449H15.3177Z" fill="#F5841F"/>
</svg>
