<svg width="17" height="16" viewBox="0 0 17 16" fill="none" xmlns="http://www.w3.org/2000/svg">
<g clip-path="url(#clip0_2658_7587)">
<path d="M2.76643 12.2117C2.86299 12.0885 2.99575 12.0166 3.13656 12.0166H15.906C16.1393 12.0166 16.256 12.3759 16.091 12.5864L13.5685 15.8049C13.472 15.9281 13.3392 15.9999 13.1984 15.9999H0.428994C0.195652 15.9999 0.0789815 15.6406 0.24393 15.4301L2.76643 12.2117Z" fill="#080F20"/>
<path d="M2.76643 0.195059C2.86701 0.071864 2.99978 0 3.13656 0H15.906C16.1393 0 16.256 0.35932 16.0911 0.569779L13.5685 3.78826C13.472 3.91145 13.3392 3.98332 13.1984 3.98332H0.428994C0.195652 3.98332 0.0789815 3.624 0.24393 3.41354L2.76643 0.195059Z" fill="#080F20"/>
<path d="M13.5685 6.16479C13.472 6.04159 13.3392 5.96973 13.1984 5.96973H0.428994C0.195652 5.96973 0.0789815 6.32905 0.24393 6.53951L2.76643 9.75798C2.86299 9.88118 2.99575 9.95304 3.13656 9.95304H15.906C16.1393 9.95304 16.256 9.59372 16.091 9.38327L13.5685 6.16479Z" fill="#080F20"/>
</g>
<defs>
<clipPath id="clip0_2658_7587">
<rect width="16" height="16" fill="white" transform="translate(0.166679)"/>
</clipPath>
</defs>
</svg>
