<svg width="100" height="101" viewBox="0 0 100 101" fill="none" xmlns="http://www.w3.org/2000/svg">
<g filter="url(#filter0_b_1_3568)">
<rect y="0.5" width="100" height="100" rx="18" fill="white" fill-opacity="0.06"/>
<path d="M47.3943 41.8264V34.9004H45.7022V38.7112L43.0613 34.9004H41.3301V41.8264H43.0124V37.8182L45.7707 41.8264H47.3943Z" fill="url(#paint0_linear_1_3568)"/>
<path d="M50.2527 41.8264V39.0954H53.2848V37.5379H50.2527V36.458H53.3532V34.9004H48.5703V41.8264H50.2527Z" fill="url(#paint1_linear_1_3568)"/>
<path d="M57.4029 41.8264V36.458H59.2222V34.9004H53.8915V36.458H55.7206V41.8264H57.4029Z" fill="url(#paint2_linear_1_3568)"/>
<path fill-rule="evenodd" clip-rule="evenodd" d="M68.1996 74.7667H69.9329C70.1605 74.7702 70.3775 74.863 70.5371 75.0252C70.6968 75.1873 70.7863 75.4058 70.7863 75.6333C70.7863 75.8609 70.6968 76.0793 70.5371 76.2415C70.3775 76.4036 70.1605 76.4965 69.9329 76.5H30.0662C29.8387 76.4965 29.6217 76.4036 29.462 76.2415C29.3024 76.0793 29.2129 75.8609 29.2129 75.6333C29.2129 75.4058 29.3024 75.1873 29.462 75.0252C29.6217 74.863 29.8387 74.7702 30.0662 74.7667H31.7996V43.5666C31.8005 42.6475 32.1661 41.7663 32.816 41.1164C33.4659 40.4665 34.3471 40.101 35.2662 40.1H36.2532C36.0058 38.1487 36.1765 36.1672 36.7541 34.287C37.3318 32.4069 38.3031 30.6713 39.6034 29.1956C40.9038 27.7199 42.5034 26.538 44.2959 25.7283C46.0884 24.9187 48.0327 24.5 49.9996 24.5C51.9664 24.5 53.9108 24.9187 55.7033 25.7283C57.4958 26.538 59.0954 27.7199 60.3957 29.1956C61.6961 30.6713 62.6674 32.4069 63.245 34.287C63.8226 36.1672 63.9934 38.1487 63.7459 40.1H64.7329C65.652 40.101 66.5332 40.4665 67.1831 41.1164C67.8331 41.7663 68.1986 42.6475 68.1996 43.5666V74.7667ZM58.5752 29.7911C56.3005 27.5164 53.2164 26.2369 49.9996 26.2333C46.7827 26.2369 43.6987 27.5164 41.424 29.791C39.1494 32.0657 37.8699 35.1497 37.8662 38.3665C38.5301 54.4585 61.4666 54.4632 62.1329 38.3666C62.1293 35.1498 60.8498 32.0657 58.5752 29.7911ZM62.1329 50.5H58.6663V53.1H62.1342L62.1329 50.5ZM51.7329 53.1V52.113C50.5826 52.2693 49.4165 52.2693 48.2662 52.113V53.1H51.7329ZM37.8662 53.1H41.3342L41.3329 50.5H37.8662V53.1ZM45.6662 66.9667V74.7667H54.3329V66.9667C54.3327 66.7369 54.2413 66.5166 54.0788 66.3541C53.9163 66.1916 53.696 66.1002 53.4662 66.1H46.5329C46.3031 66.1002 46.0828 66.1916 45.9203 66.3541C45.7579 66.5166 45.6665 66.7369 45.6662 66.9667ZM56.0662 66.9667V74.7667H66.4663V43.5666C66.4657 43.1071 66.2829 42.6665 65.958 42.3416C65.633 42.0166 65.1925 41.8338 64.7329 41.8333H63.4099C62.7128 44.5196 61.2256 46.9349 59.1407 48.7666H62.1329C62.5925 48.7672 63.033 48.95 63.358 49.2749C63.6829 49.5999 63.8657 50.0404 63.8663 50.5V53.1C63.8657 53.5595 63.6829 54.0001 63.358 54.3251C63.033 54.65 62.5925 54.8328 62.1329 54.8333H58.6663C58.2067 54.8328 57.7661 54.65 57.4412 54.3251C57.1162 54.0001 56.9334 53.5595 56.9329 53.1V50.5C56.9329 50.467 56.9373 50.4352 56.9416 50.4034C56.9441 50.3849 56.9466 50.3664 56.9483 50.3476C55.8585 50.9813 54.6869 51.4622 53.4662 51.777V53.1C53.4657 53.5595 53.2829 54.0001 52.958 54.3251C52.633 54.65 52.1925 54.8328 51.7329 54.8333H48.2662C47.8067 54.8328 47.3661 54.65 47.0412 54.3251C46.7162 54.0001 46.5334 53.5595 46.5329 53.1V51.777C45.3123 51.4622 44.1406 50.9813 43.0509 50.3476C43.0525 50.3664 43.055 50.3849 43.0576 50.4034C43.0619 50.4352 43.0662 50.467 43.0662 50.5V53.1C43.0657 53.5595 42.8829 54.0001 42.558 54.3251C42.233 54.65 41.7925 54.8328 41.3329 54.8333H37.8662C37.4067 54.8328 36.9661 54.65 36.6412 54.3251C36.3162 54.0001 36.1334 53.5595 36.1329 53.1V50.5C36.1334 50.0404 36.3162 49.5999 36.6412 49.2749C36.9661 48.95 37.4067 48.7672 37.8662 48.7666H40.8585C38.7736 46.9349 37.2864 44.5196 36.5892 41.8333H35.2662C34.8067 41.8338 34.3661 42.0166 34.0412 42.3416C33.7162 42.6665 33.5334 43.1071 33.5329 43.5666V74.7667H43.9329V66.9667C43.9337 66.2773 44.2078 65.6164 44.6953 65.129C45.1827 64.6416 45.8436 64.3674 46.5329 64.3667H53.4662C54.1556 64.3674 54.8165 64.6416 55.3039 65.129C55.7913 65.6164 56.0655 66.2773 56.0662 66.9667ZM37.8681 56.5669H41.3348C41.7943 56.5674 42.2349 56.7502 42.5598 57.0752C42.8848 57.4001 43.0676 57.8407 43.0681 58.3002V60.9002C43.0676 61.3598 42.8848 61.8004 42.5598 62.1253C42.2349 62.4503 41.7943 62.633 41.3348 62.6336H37.8681C37.4086 62.633 36.968 62.4503 36.643 62.1253C36.3181 61.8004 36.1353 61.3598 36.1348 60.9002V58.3002C36.1353 57.8407 36.3181 57.4001 36.643 57.0752C36.968 56.7502 37.4086 56.5674 37.8681 56.5669ZM37.8681 58.3002V60.9002H41.336L41.3348 58.3002H37.8681ZM48.2681 56.5669H51.7348C52.1943 56.5674 52.6349 56.7502 52.9598 57.0752C53.2848 57.4001 53.4676 57.8407 53.4681 58.3002V60.9002C53.4676 61.3598 53.2848 61.8004 52.9598 62.1253C52.6349 62.4503 52.1943 62.633 51.7348 62.6336H48.2681C47.8086 62.633 47.368 62.4503 47.043 62.1253C46.7181 61.8004 46.5353 61.3598 46.5348 60.9002V58.3002C46.5353 57.8407 46.7181 57.4001 47.043 57.0752C47.368 56.7502 47.8086 56.5674 48.2681 56.5669ZM48.2681 58.3002V60.9002H51.736L51.7348 58.3002H48.2681ZM58.6681 56.5669H62.1348C62.5943 56.5674 63.0349 56.7502 63.3599 57.0752C63.6848 57.4001 63.8676 57.8407 63.8681 58.3002V60.9002C63.8676 61.3598 63.6848 61.8004 63.3599 62.1253C63.0349 62.4503 62.5943 62.633 62.1348 62.6336H58.6681C58.2086 62.633 57.768 62.4503 57.443 62.1253C57.1181 61.8004 56.9353 61.3598 56.9348 60.9002V58.3002C56.9353 57.8407 57.1181 57.4001 57.443 57.0752C57.768 56.7502 58.2086 56.5674 58.6681 56.5669ZM58.6681 58.3002V60.9002H62.136L62.1348 58.3002H58.6681Z" fill="url(#paint3_linear_1_3568)"/>
<rect x="0.5" y="1" width="99" height="99" rx="17.5" stroke="url(#paint4_linear_1_3568)" stroke-opacity="0.3"/>
</g>
<defs>
<filter id="filter0_b_1_3568" x="-43" y="-42.5" width="186" height="186" filterUnits="userSpaceOnUse" color-interpolation-filters="sRGB">
<feFlood flood-opacity="0" result="BackgroundImageFix"/>
<feGaussianBlur in="BackgroundImage" stdDeviation="21.5"/>
<feComposite in2="SourceAlpha" operator="in" result="effect1_backgroundBlur_1_3568"/>
<feBlend mode="normal" in="SourceGraphic" in2="effect1_backgroundBlur_1_3568" result="shape"/>
</filter>
<linearGradient id="paint0_linear_1_3568" x1="41.644" y1="38.3634" x2="59.2222" y2="38.3634" gradientUnits="userSpaceOnUse">
<stop stop-color="#40BAFF"/>
<stop offset="0.348958" stop-color="#687FFF"/>
<stop offset="0.677083" stop-color="#A953FF"/>
<stop offset="1" stop-color="#FB25FF"/>
</linearGradient>
<linearGradient id="paint1_linear_1_3568" x1="41.644" y1="38.3634" x2="59.2222" y2="38.3634" gradientUnits="userSpaceOnUse">
<stop stop-color="#40BAFF"/>
<stop offset="0.348958" stop-color="#687FFF"/>
<stop offset="0.677083" stop-color="#A953FF"/>
<stop offset="1" stop-color="#FB25FF"/>
</linearGradient>
<linearGradient id="paint2_linear_1_3568" x1="41.644" y1="38.3634" x2="59.2222" y2="38.3634" gradientUnits="userSpaceOnUse">
<stop stop-color="#40BAFF"/>
<stop offset="0.348958" stop-color="#687FFF"/>
<stop offset="0.677083" stop-color="#A953FF"/>
<stop offset="1" stop-color="#FB25FF"/>
</linearGradient>
<linearGradient id="paint3_linear_1_3568" x1="29.9422" y1="50.5" x2="70.7863" y2="50.5" gradientUnits="userSpaceOnUse">
<stop stop-color="#40BAFF"/>
<stop offset="0.348958" stop-color="#687FFF"/>
<stop offset="0.677083" stop-color="#A953FF"/>
<stop offset="1" stop-color="#FB25FF"/>
</linearGradient>
<linearGradient id="paint4_linear_1_3568" x1="6.59898" y1="18.9782" x2="98.0655" y2="20.3018" gradientUnits="userSpaceOnUse">
<stop stop-color="white" stop-opacity="0.1"/>
<stop offset="1" stop-color="white" stop-opacity="0.26"/>
</linearGradient>
</defs>
</svg>
