<svg width="16" height="16" viewBox="0 0 16 16" fill="none" xmlns="http://www.w3.org/2000/svg">
<path d="M11.9891 9.67199C12.0041 9.9215 12.2646 10.0898 12.4764 9.95696C13.7918 9.13167 14.6663 7.66847 14.6663 6.00102C14.6663 3.42369 12.577 1.33435 9.99966 1.33435C8.33221 1.33435 6.86901 2.20889 6.04372 3.52431C5.91088 3.73605 6.07918 3.99656 6.32869 4.01156C9.31258 4.19094 11.8097 6.69068 11.9891 9.67199Z" fill="#3772FF"/>
<path d="M10.6663 10.001C10.6663 12.5783 8.577 14.6677 5.99967 14.6677C3.42235 14.6677 1.33301 12.5783 1.33301 10.001C1.33301 7.42369 3.42235 5.33435 5.99967 5.33435C8.577 5.33435 10.6663 7.42369 10.6663 10.001Z" fill="#3772FF"/>
</svg>
