<svg width="1512" height="3826" viewBox="0 0 1512 3826" fill="none" xmlns="http://www.w3.org/2000/svg">
<g clip-path="url(#clip0_2851_63419)">
<g filter="url(#filter0_f_2851_63419)">
<circle cx="1362" cy="443" r="186" fill="#566FFE" fill-opacity="0.4"/>
</g>
<g filter="url(#filter1_f_2851_63419)">
<path d="M226 1719C226 1947.65 450.753 2133 728 2133C1005.25 2133 1230 1947.65 1230 1719C1230 1490.35 1005.25 1305 728 1305C450.753 1305 226 1490.35 226 1719Z" fill="#250055" fill-opacity="0.71"/>
</g>
<g opacity="0.6" filter="url(#filter2_f_2851_63419)">
<path d="M-38 394C-38 622.646 186.753 808 464 808C741.247 808 966 622.646 966 394C966 165.354 741.247 -20 464 -20C186.753 -20 -38 165.354 -38 394Z" fill="#911DC8"/>
</g>
<g filter="url(#filter3_f_2851_63419)">
<circle cx="966" cy="808" r="193" fill="#0026FF" fill-opacity="0.4"/>
</g>
<g filter="url(#filter4_f_2851_63419)">
<path d="M-302.003 2381.3C-266.395 4329.82 958.951 3689.91 1368.15 3405.97C1791.49 3112.22 1914.13 2841.82 1914.13 1813.41C1914.13 784.996 1682.4 -546.628 1126.81 -11.6587C849.868 150.89 1280.55 4671.38 -302.003 2381.3Z" fill="#69208B" fill-opacity="0.57"/>
</g>
<g filter="url(#filter5_f_2851_63419)">
<path d="M949 1014C949 1242.65 1173.75 1428 1451 1428C1728.25 1428 1953 1242.65 1953 1014C1953 785.354 1728.25 600 1451 600C1173.75 600 949 785.354 949 1014Z" fill="#3300FF" fill-opacity="0.3"/>
</g>
<g filter="url(#filter6_f_2851_63419)">
<path d="M2366 1295.47C2335.91 2332.14 1300.29 1991.69 954.443 1840.62C596.657 1684.34 493 1540.48 493 993.338C493 446.195 688.851 -262.266 1158.41 22.3523C1392.48 108.832 1028.48 2513.86 2366 1295.47Z" fill="#1E4382" fill-opacity="0.7"/>
</g>
<g filter="url(#filter7_f_2851_63419)">
<path d="M1433.31 2271.35C1300.56 3299.92 303.807 2858.45 -25.3515 2673.84C-365.876 2482.84 -454.757 2329.41 -400.499 1784.97C-346.242 1240.52 -81.1031 554.974 357.922 884.753C582.258 994.018 -18.4359 3351.09 1433.31 2271.35Z" fill="#981FB7" fill-opacity="0.66"/>
</g>
<g filter="url(#filter8_f_2851_63419)">
<path d="M-152.197 3143.23C-116.589 4216.52 1108.76 3864.04 1517.96 3707.64C1941.29 3545.84 2063.94 3396.9 2063.94 2830.43C2063.94 2263.96 1832.21 1530.47 1276.62 1825.14C999.674 1914.68 1430.35 4404.65 -152.197 3143.23Z" fill="#001E50" fill-opacity="0.7"/>
</g>
<g filter="url(#filter9_f_2851_63419)">
<path d="M956 340C956 568.646 1180.75 754 1458 754C1735.25 754 1960 568.646 1960 340C1960 111.354 1735.25 -74 1458 -74C1180.75 -74 956 111.354 956 340Z" fill="#3300FF" fill-opacity="0.3"/>
</g>
<g filter="url(#filter10_f_2851_63419)">
<path d="M493 4604.21C523.094 5640.88 1558.71 5300.43 1904.56 5149.36C2262.34 4993.08 2366 4849.22 2366 4302.07C2366 3754.93 2170.15 3046.47 1700.59 3331.09C1466.52 3417.57 1830.52 5822.59 493 4604.21Z" fill="#6197F2" fill-opacity="0.7"/>
</g>
<g filter="url(#filter11_b_2851_63419)">
<rect width="1512" height="3826" fill="url(#paint0_linear_2851_63419)"/>
</g>
</g>
<defs>
<filter id="filter0_f_2851_63419" x="1026" y="107" width="672" height="672" filterUnits="userSpaceOnUse" color-interpolation-filters="sRGB">
<feFlood flood-opacity="0" result="BackgroundImageFix"/>
<feBlend mode="normal" in="SourceGraphic" in2="BackgroundImageFix" result="shape"/>
<feGaussianBlur stdDeviation="75" result="effect1_foregroundBlur_2851_63419"/>
</filter>
<filter id="filter1_f_2851_63419" x="76" y="1155" width="1304" height="1128" filterUnits="userSpaceOnUse" color-interpolation-filters="sRGB">
<feFlood flood-opacity="0" result="BackgroundImageFix"/>
<feBlend mode="normal" in="SourceGraphic" in2="BackgroundImageFix" result="shape"/>
<feGaussianBlur stdDeviation="75" result="effect1_foregroundBlur_2851_63419"/>
</filter>
<filter id="filter2_f_2851_63419" x="-188" y="-170" width="1304" height="1128" filterUnits="userSpaceOnUse" color-interpolation-filters="sRGB">
<feFlood flood-opacity="0" result="BackgroundImageFix"/>
<feBlend mode="normal" in="SourceGraphic" in2="BackgroundImageFix" result="shape"/>
<feGaussianBlur stdDeviation="75" result="effect1_foregroundBlur_2851_63419"/>
</filter>
<filter id="filter3_f_2851_63419" x="623" y="465" width="686" height="686" filterUnits="userSpaceOnUse" color-interpolation-filters="sRGB">
<feFlood flood-opacity="0" result="BackgroundImageFix"/>
<feBlend mode="normal" in="SourceGraphic" in2="BackgroundImageFix" result="shape"/>
<feGaussianBlur stdDeviation="75" result="effect1_foregroundBlur_2851_63419"/>
</filter>
<filter id="filter4_f_2851_63419" x="-452.003" y="-284" width="2516.14" height="4171.28" filterUnits="userSpaceOnUse" color-interpolation-filters="sRGB">
<feFlood flood-opacity="0" result="BackgroundImageFix"/>
<feBlend mode="normal" in="SourceGraphic" in2="BackgroundImageFix" result="shape"/>
<feGaussianBlur stdDeviation="75" result="effect1_foregroundBlur_2851_63419"/>
</filter>
<filter id="filter5_f_2851_63419" x="799" y="450" width="1304" height="1128" filterUnits="userSpaceOnUse" color-interpolation-filters="sRGB">
<feFlood flood-opacity="0" result="BackgroundImageFix"/>
<feBlend mode="normal" in="SourceGraphic" in2="BackgroundImageFix" result="shape"/>
<feGaussianBlur stdDeviation="75" result="effect1_foregroundBlur_2851_63419"/>
</filter>
<filter id="filter6_f_2851_63419" x="343" y="-192.737" width="2173" height="2359.63" filterUnits="userSpaceOnUse" color-interpolation-filters="sRGB">
<feFlood flood-opacity="0" result="BackgroundImageFix"/>
<feBlend mode="normal" in="SourceGraphic" in2="BackgroundImageFix" result="shape"/>
<feGaussianBlur stdDeviation="75" result="effect1_foregroundBlur_2851_63419"/>
</filter>
<filter id="filter7_f_2851_63419" x="-565.255" y="648.615" width="2148.56" height="2429.04" filterUnits="userSpaceOnUse" color-interpolation-filters="sRGB">
<feFlood flood-opacity="0" result="BackgroundImageFix"/>
<feBlend mode="normal" in="SourceGraphic" in2="BackgroundImageFix" result="shape"/>
<feGaussianBlur stdDeviation="75" result="effect1_foregroundBlur_2851_63419"/>
</filter>
<filter id="filter8_f_2851_63419" x="-302.197" y="1607.75" width="2516.14" height="2432.38" filterUnits="userSpaceOnUse" color-interpolation-filters="sRGB">
<feFlood flood-opacity="0" result="BackgroundImageFix"/>
<feBlend mode="normal" in="SourceGraphic" in2="BackgroundImageFix" result="shape"/>
<feGaussianBlur stdDeviation="75" result="effect1_foregroundBlur_2851_63419"/>
</filter>
<filter id="filter9_f_2851_63419" x="806" y="-224" width="1304" height="1128" filterUnits="userSpaceOnUse" color-interpolation-filters="sRGB">
<feFlood flood-opacity="0" result="BackgroundImageFix"/>
<feBlend mode="normal" in="SourceGraphic" in2="BackgroundImageFix" result="shape"/>
<feGaussianBlur stdDeviation="75" result="effect1_foregroundBlur_2851_63419"/>
</filter>
<filter id="filter10_f_2851_63419" x="343" y="3116" width="2173" height="2359.63" filterUnits="userSpaceOnUse" color-interpolation-filters="sRGB">
<feFlood flood-opacity="0" result="BackgroundImageFix"/>
<feBlend mode="normal" in="SourceGraphic" in2="BackgroundImageFix" result="shape"/>
<feGaussianBlur stdDeviation="75" result="effect1_foregroundBlur_2851_63419"/>
</filter>
<filter id="filter11_b_2851_63419" x="-900" y="-900" width="3312" height="5626" filterUnits="userSpaceOnUse" color-interpolation-filters="sRGB">
<feFlood flood-opacity="0" result="BackgroundImageFix"/>
<feGaussianBlur in="BackgroundImage" stdDeviation="450"/>
<feComposite in2="SourceAlpha" operator="in" result="effect1_backgroundBlur_2851_63419"/>
<feBlend mode="normal" in="SourceGraphic" in2="effect1_backgroundBlur_2851_63419" result="shape"/>
</filter>
<linearGradient id="paint0_linear_2851_63419" x1="756" y1="0" x2="756" y2="3826" gradientUnits="userSpaceOnUse">
<stop stop-color="#050F1F" stop-opacity="0.3"/>
<stop offset="1" stop-color="#050F1F" stop-opacity="0.8"/>
</linearGradient>
<clipPath id="clip0_2851_63419">
<rect width="1512" height="3826" fill="white"/>
</clipPath>
</defs>
</svg>
