<svg width="100" height="101" viewBox="0 0 100 101" fill="none" xmlns="http://www.w3.org/2000/svg">
<g filter="url(#filter0_b_1_3551)">
<rect y="0.5" width="100" height="100" rx="18" fill="white" fill-opacity="0.06"/>
<path fill-rule="evenodd" clip-rule="evenodd" d="M32.8404 37.131C32.8404 35.3325 34.2984 33.8746 36.0968 33.8746H62.8351C64.6336 33.8746 66.0915 35.3325 66.0915 37.131V63.8693C66.0915 65.6678 64.6336 67.1257 62.8351 67.1257H36.0968C34.2984 67.1257 32.8404 65.6678 32.8404 63.8693V37.131ZM36.0968 31.4746C32.9729 31.4746 30.4404 34.0071 30.4404 37.131V44.2824C29.9768 44.3438 29.5222 44.4655 29.0883 44.6452C28.4359 44.9155 27.843 45.3116 27.3437 45.811C26.8443 46.3103 26.4482 46.9032 26.1779 47.5556C26.161 47.5964 26.1446 47.6375 26.1287 47.6786C26.1128 47.6375 26.0964 47.5964 26.0795 47.5556C25.8093 46.9032 25.4131 46.3103 24.9138 45.811C24.4144 45.3116 23.8216 44.9155 23.1691 44.6452C22.5166 44.3749 21.8173 44.2358 21.1111 44.2358C20.4484 44.2358 19.9111 44.7731 19.9111 45.4358C19.9111 46.0986 20.4484 46.6358 21.1111 46.6358C21.5022 46.6358 21.8894 46.7129 22.2507 46.8625C22.6119 47.0122 22.9402 47.2315 23.2167 47.508C23.4932 47.7845 23.7126 48.1128 23.8622 48.4741C24.0119 48.8353 24.0889 49.2225 24.0889 49.6136C24.0889 50.0046 24.0119 50.3918 23.8622 50.7531C23.7126 51.1144 23.4932 51.4427 23.2167 51.7192C22.9402 51.9957 22.6119 52.215 22.2507 52.3647C21.8894 52.5143 21.5022 52.5913 21.1111 52.5913C20.4484 52.5913 19.9111 53.1286 19.9111 53.7913C19.9111 54.4541 20.4484 54.9913 21.1111 54.9913C21.8173 54.9913 22.5167 54.8522 23.1691 54.582C23.8216 54.3117 24.4144 53.9156 24.9138 53.4162C25.4131 52.9169 25.8093 52.324 26.0795 51.6716C26.0964 51.6307 26.1128 51.5897 26.1287 51.5485C26.1446 51.5897 26.161 51.6307 26.1779 51.6716C26.4482 52.324 26.8443 52.9169 27.3437 53.4162C27.843 53.9156 28.4359 54.3117 29.0883 54.582C29.5222 54.7617 29.9768 54.8834 30.4404 54.9448V63.8693C30.4404 66.9933 32.9729 69.5257 36.0968 69.5257H62.8351C65.9591 69.5257 68.4915 66.9933 68.4915 63.8693V54.9333C68.608 54.971 68.7322 54.9913 68.8611 54.9913C69.5674 54.9913 70.2667 54.8522 70.9191 54.582C71.5716 54.3117 72.1644 53.9156 72.6638 53.4162C73.1631 52.9169 73.5593 52.324 73.8295 51.6716C73.8451 51.6341 73.8602 51.5964 73.8748 51.5586C73.8895 51.5964 73.9046 51.6341 73.9201 51.6716C74.1904 52.324 74.5865 52.9169 75.0858 53.4162C75.5852 53.9156 76.1781 54.3117 76.8305 54.582C77.483 54.8522 78.1823 54.9913 78.8885 54.9913C79.5512 54.9913 80.0885 54.4541 80.0885 53.7913C80.0885 53.1286 79.5512 52.5913 78.8885 52.5913C78.4974 52.5913 78.1102 52.5143 77.749 52.3647C77.3877 52.215 77.0594 51.9957 76.7829 51.7192C76.5064 51.4427 76.2871 51.1144 76.1374 50.7531C75.9878 50.3918 75.9107 50.0046 75.9107 49.6136C75.9107 49.2225 75.9878 48.8353 76.1374 48.4741C76.2871 48.1128 76.5064 47.7845 76.7829 47.508C77.0594 47.2315 77.3877 47.0122 77.749 46.8625C78.1102 46.7129 78.4974 46.6358 78.8885 46.6358C79.5512 46.6358 80.0885 46.0986 80.0885 45.4358C80.0885 44.7731 79.5512 44.2358 78.8885 44.2358C78.1823 44.2358 77.483 44.3749 76.8305 44.6452C76.1781 44.9155 75.5852 45.3116 75.0858 45.811C74.5865 46.3103 74.1904 46.9032 73.9201 47.5556C73.9046 47.5931 73.8895 47.6308 73.8748 47.6685C73.8602 47.6308 73.8451 47.5931 73.8295 47.5556C73.5593 46.9032 73.1631 46.3103 72.6638 45.811C72.1644 45.3116 71.5716 44.9155 70.9191 44.6452C70.2667 44.3749 69.5673 44.2358 68.8611 44.2358C68.7322 44.2358 68.608 44.2562 68.4915 44.2938V37.131C68.4915 34.0071 65.9591 31.4746 62.8351 31.4746H36.0968ZM68.4915 46.5778V52.6493C68.608 52.6117 68.7322 52.5913 68.8611 52.5913C69.2522 52.5913 69.6394 52.5143 70.0007 52.3647C70.3619 52.215 70.6902 51.9957 70.9667 51.7192C71.2432 51.4427 71.4626 51.1144 71.6122 50.7531C71.7619 50.3918 71.8389 50.0046 71.8389 49.6136C71.8389 49.2225 71.7619 48.8353 71.6122 48.4741C71.4626 48.1128 71.2432 47.7845 70.9667 47.508C70.6902 47.2315 70.3619 47.0122 70.0007 46.8625C69.6394 46.7129 69.2522 46.6358 68.8611 46.6358C68.7322 46.6358 68.608 46.6155 68.4915 46.5778ZM30.4404 52.5065V46.7207C30.2928 46.7567 30.1478 46.8041 30.0068 46.8625C29.6455 47.0122 29.3172 47.2315 29.0407 47.508C28.7642 47.7845 28.5449 48.1128 28.3952 48.4741C28.2456 48.8353 28.1686 49.2225 28.1686 49.6136C28.1686 50.0046 28.2456 50.3918 28.3952 50.7531C28.5449 51.1144 28.7642 51.4427 29.0407 51.7192C29.3172 51.9957 29.6455 52.215 30.0068 52.3647C30.1478 52.4231 30.2928 52.4704 30.4404 52.5065Z" fill="url(#paint0_linear_1_3551)"/>
<path d="M45.7128 55.1589V46.1182H43.504V51.0926L40.0567 46.1182H37.7969V55.1589H39.9929V49.9269L43.5934 55.1589H45.7128Z" fill="url(#paint1_linear_1_3551)"/>
<path d="M49.4439 55.1589V51.5941H53.4019V49.561H49.4439V48.1513H53.4912V46.1182H47.2479V55.1589H49.4439Z" fill="url(#paint2_linear_1_3551)"/>
<path d="M58.7774 55.1589V48.1513H61.1522V46.1182H54.1938V48.1513H56.5814V55.1589H58.7774Z" fill="url(#paint3_linear_1_3551)"/>
<rect x="0.5" y="1" width="99" height="99" rx="17.5" stroke="url(#paint4_linear_1_3551)" stroke-opacity="0.3"/>
</g>
<defs>
<filter id="filter0_b_1_3551" x="-43" y="-42.5" width="186" height="186" filterUnits="userSpaceOnUse" color-interpolation-filters="sRGB">
<feFlood flood-opacity="0" result="BackgroundImageFix"/>
<feGaussianBlur in="BackgroundImage" stdDeviation="21.5"/>
<feComposite in2="SourceAlpha" operator="in" result="effect1_backgroundBlur_1_3551"/>
<feBlend mode="normal" in="SourceGraphic" in2="effect1_backgroundBlur_1_3551" result="shape"/>
</filter>
<linearGradient id="paint0_linear_1_3551" x1="20.9669" y1="50.5001" x2="80.0887" y2="50.5001" gradientUnits="userSpaceOnUse">
<stop stop-color="#40BAFF"/>
<stop offset="0.348958" stop-color="#687FFF"/>
<stop offset="0.677083" stop-color="#A953FF"/>
<stop offset="1" stop-color="#FB25FF"/>
</linearGradient>
<linearGradient id="paint1_linear_1_3551" x1="38.2066" y1="50.6385" x2="61.1522" y2="50.6385" gradientUnits="userSpaceOnUse">
<stop stop-color="#40BAFF"/>
<stop offset="0.348958" stop-color="#687FFF"/>
<stop offset="0.677083" stop-color="#A953FF"/>
<stop offset="1" stop-color="#FB25FF"/>
</linearGradient>
<linearGradient id="paint2_linear_1_3551" x1="38.2066" y1="50.6385" x2="61.1522" y2="50.6385" gradientUnits="userSpaceOnUse">
<stop stop-color="#40BAFF"/>
<stop offset="0.348958" stop-color="#687FFF"/>
<stop offset="0.677083" stop-color="#A953FF"/>
<stop offset="1" stop-color="#FB25FF"/>
</linearGradient>
<linearGradient id="paint3_linear_1_3551" x1="38.2066" y1="50.6385" x2="61.1522" y2="50.6385" gradientUnits="userSpaceOnUse">
<stop stop-color="#40BAFF"/>
<stop offset="0.348958" stop-color="#687FFF"/>
<stop offset="0.677083" stop-color="#A953FF"/>
<stop offset="1" stop-color="#FB25FF"/>
</linearGradient>
<linearGradient id="paint4_linear_1_3551" x1="6.59898" y1="18.9782" x2="98.0655" y2="20.3018" gradientUnits="userSpaceOnUse">
<stop stop-color="white" stop-opacity="0.1"/>
<stop offset="1" stop-color="white" stop-opacity="0.26"/>
</linearGradient>
</defs>
</svg>
