<svg width="40" height="28" viewBox="0 0 40 28" fill="none" xmlns="http://www.w3.org/2000/svg">
<path d="M40 19.5799C40 23.9599 36.48 27.4999 32.14 27.4999H7.86C3.52 27.4999 0 23.9599 0 19.5799C0 15.6399 2.86 12.3799 6.62 11.7799C6.56 11.4999 6.54 11.2199 6.54 10.9199C6.54 8.15988 8.76 5.89988 11.52 5.89988C12.74 5.89988 13.88 6.35988 14.74 7.09988C16.28 3.59988 18.26 0.379883 23.82 0.379883C30.56 0.379883 33.74 5.61988 33.74 11.1599C33.74 11.3799 33.74 11.6199 33.72 11.8399C35.4967 12.2121 37.091 13.1849 38.2347 14.5945C39.3784 16.0041 40.0018 17.7646 40 19.5799Z" fill="#4964FE"/>
</svg>
