<svg width="1512" height="3826" viewBox="0 0 1512 3826" fill="none" xmlns="http://www.w3.org/2000/svg">
<g clip-path="url(#clip0_2729_45478)">
<g filter="url(#filter0_f_2729_45478)">
<circle cx="1362" cy="443" r="186" fill="#566FFE" fill-opacity="0.4"/>
<circle cx="1362" cy="443" r="186" fill="white" fill-opacity="0.4"/>
</g>
<g filter="url(#filter1_f_2729_45478)">
<path d="M226 1719C226 1947.65 450.753 2133 728 2133C1005.25 2133 1230 1947.65 1230 1719C1230 1490.35 1005.25 1305 728 1305C450.753 1305 226 1490.35 226 1719Z" fill="#9159DA" fill-opacity="0.3"/>
<path d="M226 1719C226 1947.65 450.753 2133 728 2133C1005.25 2133 1230 1947.65 1230 1719C1230 1490.35 1005.25 1305 728 1305C450.753 1305 226 1490.35 226 1719Z" fill="white" fill-opacity="0.4"/>
</g>
<g filter="url(#filter2_f_2729_45478)">
<path d="M-149 2536C-149 2880.07 189.249 3159 606.5 3159C1023.75 3159 1362 2880.07 1362 2536C1362 2191.93 1023.75 1913 606.5 1913C189.249 1913 -149 2191.93 -149 2536Z" fill="#CED9FF"/>
</g>
<g filter="url(#filter3_f_2729_45478)">
<path d="M-149 303C-149 531.646 75.7531 717 353 717C630.247 717 855 531.646 855 303C855 74.3541 630.247 -111 353 -111C75.7531 -111 -149 74.3541 -149 303Z" fill="#B6CFF9"/>
<path d="M-149 303C-149 531.646 75.7531 717 353 717C630.247 717 855 531.646 855 303C855 74.3541 630.247 -111 353 -111C75.7531 -111 -149 74.3541 -149 303Z" fill="white" fill-opacity="0.4"/>
</g>
<g filter="url(#filter4_f_2729_45478)">
<path d="M198.904 231.782C-26.375 270.874 -126.203 779.705 -24.0684 1368.29C78.0665 1956.87 343.488 2402.32 568.767 2363.23C794.047 2324.13 893.875 1815.3 791.74 1226.72C689.605 638.14 424.184 192.69 198.904 231.782Z" fill="white"/>
</g>
<g filter="url(#filter5_f_2729_45478)">
<circle cx="966" cy="808" r="193" fill="#566FFE" fill-opacity="0.4"/>
<circle cx="966" cy="808" r="193" fill="white" fill-opacity="0.4"/>
</g>
<g filter="url(#filter6_f_2729_45478)">
<path d="M-302.003 2381.3C-266.395 4329.82 958.951 3689.91 1368.15 3405.97C1791.49 3112.22 1914.13 2841.82 1914.13 1813.41C1914.13 784.996 1682.4 -546.628 1126.81 -11.6587C849.868 150.89 1280.55 4671.38 -302.003 2381.3Z" fill="#B03CE7" fill-opacity="0.3"/>
<path d="M-302.003 2381.3C-266.395 4329.82 958.951 3689.91 1368.15 3405.97C1791.49 3112.22 1914.13 2841.82 1914.13 1813.41C1914.13 784.996 1682.4 -546.628 1126.81 -11.6587C849.868 150.89 1280.55 4671.38 -302.003 2381.3Z" fill="white" fill-opacity="0.4"/>
</g>
<g filter="url(#filter7_f_2729_45478)">
<path d="M949 1014C949 1242.65 1173.75 1428 1451 1428C1728.25 1428 1953 1242.65 1953 1014C1953 785.354 1728.25 600 1451 600C1173.75 600 949 785.354 949 1014Z" fill="#3DADFF" fill-opacity="0.3"/>
<path d="M949 1014C949 1242.65 1173.75 1428 1451 1428C1728.25 1428 1953 1242.65 1953 1014C1953 785.354 1728.25 600 1451 600C1173.75 600 949 785.354 949 1014Z" fill="white" fill-opacity="0.4"/>
</g>
<g filter="url(#filter8_f_2729_45478)">
<path d="M2366 1295.47C2335.91 2332.14 1300.29 1991.69 954.443 1840.62C596.657 1684.34 493 1540.48 493 993.338C493 446.195 688.851 -262.266 1158.41 22.3523C1392.48 108.832 1028.48 2513.86 2366 1295.47Z" fill="#6197F2" fill-opacity="0.7"/>
<path d="M2366 1295.47C2335.91 2332.14 1300.29 1991.69 954.443 1840.62C596.657 1684.34 493 1540.48 493 993.338C493 446.195 688.851 -262.266 1158.41 22.3523C1392.48 108.832 1028.48 2513.86 2366 1295.47Z" fill="white" fill-opacity="0.4"/>
</g>
<g filter="url(#filter9_f_2729_45478)">
<path d="M1433.31 2271.35C1300.56 3299.92 303.807 2858.45 -25.3515 2673.84C-365.876 2482.84 -454.757 2329.41 -400.499 1784.97C-346.242 1240.52 -81.1031 554.974 357.922 884.753C582.258 994.018 -18.4359 3351.09 1433.31 2271.35Z" fill="#EEAAFF" fill-opacity="0.4"/>
<path d="M1433.31 2271.35C1300.56 3299.92 303.807 2858.45 -25.3515 2673.84C-365.876 2482.84 -454.757 2329.41 -400.499 1784.97C-346.242 1240.52 -81.1031 554.974 357.922 884.753C582.258 994.018 -18.4359 3351.09 1433.31 2271.35Z" fill="white" fill-opacity="0.4"/>
</g>
<g filter="url(#filter10_f_2729_45478)">
<path d="M-152.197 3143.23C-116.589 4216.52 1108.76 3864.04 1517.96 3707.64C1941.29 3545.84 2063.94 3396.9 2063.94 2830.43C2063.94 2263.96 1832.21 1530.47 1276.62 1825.14C999.674 1914.68 1430.35 4404.65 -152.197 3143.23Z" fill="#387EF3" fill-opacity="0.7"/>
<path d="M-152.197 3143.23C-116.589 4216.52 1108.76 3864.04 1517.96 3707.64C1941.29 3545.84 2063.94 3396.9 2063.94 2830.43C2063.94 2263.96 1832.21 1530.47 1276.62 1825.14C999.674 1914.68 1430.35 4404.65 -152.197 3143.23Z" fill="white" fill-opacity="0.4"/>
</g>
<g filter="url(#filter11_f_2729_45478)">
<path d="M956 340C956 568.646 1180.75 754 1458 754C1735.25 754 1960 568.646 1960 340C1960 111.354 1735.25 -74 1458 -74C1180.75 -74 956 111.354 956 340Z" fill="#15ABFF" fill-opacity="0.3"/>
<path d="M956 340C956 568.646 1180.75 754 1458 754C1735.25 754 1960 568.646 1960 340C1960 111.354 1735.25 -74 1458 -74C1180.75 -74 956 111.354 956 340Z" fill="white" fill-opacity="0.4"/>
</g>
<g filter="url(#filter12_f_2729_45478)">
<path d="M493 4604.21C523.094 5640.88 1558.71 5300.43 1904.56 5149.36C2262.34 4993.08 2366 4849.22 2366 4302.07C2366 3754.93 2170.15 3046.47 1700.59 3331.09C1466.52 3417.57 1830.52 5822.59 493 4604.21Z" fill="#6197F2" fill-opacity="0.7"/>
</g>
<g filter="url(#filter13_f_2729_45478)">
<path d="M1013.33 295.067C873.139 5.0992 1207.27 -49.4249 1324.21 -57.3344C1445.18 -65.517 1494.35 -40.7229 1572.72 110.044C1651.09 260.812 1698.6 484.083 1528.44 472.913C1451.56 482.609 1207.38 -232.241 1013.33 295.067Z" fill="#EEAAFF" fill-opacity="0.4"/>
<path d="M1013.33 295.067C873.139 5.0992 1207.27 -49.4249 1324.21 -57.3344C1445.18 -65.517 1494.35 -40.7229 1572.72 110.044C1651.09 260.812 1698.6 484.083 1528.44 472.913C1451.56 482.609 1207.38 -232.241 1013.33 295.067Z" fill="white" fill-opacity="0.4"/>
</g>
<g filter="url(#filter14_b_2729_45478)">
<rect width="1512" height="3826" fill="white" fill-opacity="0.2"/>
</g>
</g>
<defs>
<filter id="filter0_f_2729_45478" x="1076" y="157" width="572" height="572" filterUnits="userSpaceOnUse" color-interpolation-filters="sRGB">
<feFlood flood-opacity="0" result="BackgroundImageFix"/>
<feBlend mode="normal" in="SourceGraphic" in2="BackgroundImageFix" result="shape"/>
<feGaussianBlur stdDeviation="50" result="effect1_foregroundBlur_2729_45478"/>
</filter>
<filter id="filter1_f_2729_45478" x="126" y="1205" width="1204" height="1028" filterUnits="userSpaceOnUse" color-interpolation-filters="sRGB">
<feFlood flood-opacity="0" result="BackgroundImageFix"/>
<feBlend mode="normal" in="SourceGraphic" in2="BackgroundImageFix" result="shape"/>
<feGaussianBlur stdDeviation="50" result="effect1_foregroundBlur_2729_45478"/>
</filter>
<filter id="filter2_f_2729_45478" x="-249" y="1813" width="1711" height="1446" filterUnits="userSpaceOnUse" color-interpolation-filters="sRGB">
<feFlood flood-opacity="0" result="BackgroundImageFix"/>
<feBlend mode="normal" in="SourceGraphic" in2="BackgroundImageFix" result="shape"/>
<feGaussianBlur stdDeviation="50" result="effect1_foregroundBlur_2729_45478"/>
</filter>
<filter id="filter3_f_2729_45478" x="-249" y="-211" width="1204" height="1028" filterUnits="userSpaceOnUse" color-interpolation-filters="sRGB">
<feFlood flood-opacity="0" result="BackgroundImageFix"/>
<feBlend mode="normal" in="SourceGraphic" in2="BackgroundImageFix" result="shape"/>
<feGaussianBlur stdDeviation="50" result="effect1_foregroundBlur_2729_45478"/>
</filter>
<filter id="filter4_f_2729_45478" x="-164.142" y="129.394" width="1095.96" height="2336.22" filterUnits="userSpaceOnUse" color-interpolation-filters="sRGB">
<feFlood flood-opacity="0" result="BackgroundImageFix"/>
<feBlend mode="normal" in="SourceGraphic" in2="BackgroundImageFix" result="shape"/>
<feGaussianBlur stdDeviation="50" result="effect1_foregroundBlur_2729_45478"/>
</filter>
<filter id="filter5_f_2729_45478" x="673" y="515" width="586" height="586" filterUnits="userSpaceOnUse" color-interpolation-filters="sRGB">
<feFlood flood-opacity="0" result="BackgroundImageFix"/>
<feBlend mode="normal" in="SourceGraphic" in2="BackgroundImageFix" result="shape"/>
<feGaussianBlur stdDeviation="50" result="effect1_foregroundBlur_2729_45478"/>
</filter>
<filter id="filter6_f_2729_45478" x="-402.003" y="-234" width="2416.14" height="4071.28" filterUnits="userSpaceOnUse" color-interpolation-filters="sRGB">
<feFlood flood-opacity="0" result="BackgroundImageFix"/>
<feBlend mode="normal" in="SourceGraphic" in2="BackgroundImageFix" result="shape"/>
<feGaussianBlur stdDeviation="50" result="effect1_foregroundBlur_2729_45478"/>
</filter>
<filter id="filter7_f_2729_45478" x="849" y="500" width="1204" height="1028" filterUnits="userSpaceOnUse" color-interpolation-filters="sRGB">
<feFlood flood-opacity="0" result="BackgroundImageFix"/>
<feBlend mode="normal" in="SourceGraphic" in2="BackgroundImageFix" result="shape"/>
<feGaussianBlur stdDeviation="50" result="effect1_foregroundBlur_2729_45478"/>
</filter>
<filter id="filter8_f_2729_45478" x="393" y="-142.737" width="2073" height="2259.63" filterUnits="userSpaceOnUse" color-interpolation-filters="sRGB">
<feFlood flood-opacity="0" result="BackgroundImageFix"/>
<feBlend mode="normal" in="SourceGraphic" in2="BackgroundImageFix" result="shape"/>
<feGaussianBlur stdDeviation="50" result="effect1_foregroundBlur_2729_45478"/>
</filter>
<filter id="filter9_f_2729_45478" x="-515.255" y="698.615" width="2048.56" height="2329.04" filterUnits="userSpaceOnUse" color-interpolation-filters="sRGB">
<feFlood flood-opacity="0" result="BackgroundImageFix"/>
<feBlend mode="normal" in="SourceGraphic" in2="BackgroundImageFix" result="shape"/>
<feGaussianBlur stdDeviation="50" result="effect1_foregroundBlur_2729_45478"/>
</filter>
<filter id="filter10_f_2729_45478" x="-252.197" y="1657.75" width="2416.14" height="2332.38" filterUnits="userSpaceOnUse" color-interpolation-filters="sRGB">
<feFlood flood-opacity="0" result="BackgroundImageFix"/>
<feBlend mode="normal" in="SourceGraphic" in2="BackgroundImageFix" result="shape"/>
<feGaussianBlur stdDeviation="50" result="effect1_foregroundBlur_2729_45478"/>
</filter>
<filter id="filter11_f_2729_45478" x="856" y="-174" width="1204" height="1028" filterUnits="userSpaceOnUse" color-interpolation-filters="sRGB">
<feFlood flood-opacity="0" result="BackgroundImageFix"/>
<feBlend mode="normal" in="SourceGraphic" in2="BackgroundImageFix" result="shape"/>
<feGaussianBlur stdDeviation="50" result="effect1_foregroundBlur_2729_45478"/>
</filter>
<filter id="filter12_f_2729_45478" x="393" y="3166" width="2073" height="2259.63" filterUnits="userSpaceOnUse" color-interpolation-filters="sRGB">
<feFlood flood-opacity="0" result="BackgroundImageFix"/>
<feBlend mode="normal" in="SourceGraphic" in2="BackgroundImageFix" result="shape"/>
<feGaussianBlur stdDeviation="50" result="effect1_foregroundBlur_2729_45478"/>
</filter>
<filter id="filter13_f_2729_45478" x="879.558" y="-158.715" width="864.223" height="732.03" filterUnits="userSpaceOnUse" color-interpolation-filters="sRGB">
<feFlood flood-opacity="0" result="BackgroundImageFix"/>
<feBlend mode="normal" in="SourceGraphic" in2="BackgroundImageFix" result="shape"/>
<feGaussianBlur stdDeviation="50" result="effect1_foregroundBlur_2729_45478"/>
</filter>
<filter id="filter14_b_2729_45478" x="-400" y="-400" width="2312" height="4626" filterUnits="userSpaceOnUse" color-interpolation-filters="sRGB">
<feFlood flood-opacity="0" result="BackgroundImageFix"/>
<feGaussianBlur in="BackgroundImage" stdDeviation="200"/>
<feComposite in2="SourceAlpha" operator="in" result="effect1_backgroundBlur_2729_45478"/>
<feBlend mode="normal" in="SourceGraphic" in2="effect1_backgroundBlur_2729_45478" result="shape"/>
</filter>
<clipPath id="clip0_2729_45478">
<rect width="1512" height="3826" fill="white"/>
</clipPath>
</defs>
</svg>
