<svg width="12" height="4" viewBox="0 0 12 4" fill="none" xmlns="http://www.w3.org/2000/svg">
<path d="M1.33333 0.666626C0.6 0.666626 0 1.26663 0 1.99996C0 2.73329 0.6 3.33329 1.33333 3.33329C2.06667 3.33329 2.66667 2.73329 2.66667 1.99996C2.66667 1.26663 2.06667 0.666626 1.33333 0.666626ZM10.6667 0.666626C9.93333 0.666626 9.33333 1.26663 9.33333 1.99996C9.33333 2.73329 9.93333 3.33329 10.6667 3.33329C11.4 3.33329 12 2.73329 12 1.99996C12 1.26663 11.4 0.666626 10.6667 0.666626ZM6 0.666626C5.26667 0.666626 4.66667 1.26663 4.66667 1.99996C4.66667 2.73329 5.26667 3.33329 6 3.33329C6.73333 3.33329 7.33333 2.73329 7.33333 1.99996C7.33333 1.26663 6.73333 0.666626 6 0.666626Z" fill="#080F20"/>
</svg>
