<svg width="15" height="15" viewBox="0 0 15 15" fill="none" xmlns="http://www.w3.org/2000/svg">
<path d="M14.824 9.31999V10.088C14.824 10.136 14.8 10.16 14.752 10.184C14.512 10.28 13.672 10.664 13.336 11.144C12.448 12.368 11.776 14.12 10.288 14.12H4.04804C1.84004 14.12 0.0400391 12.32 0.0400391 10.088V10.016C0.0400391 9.96799 0.088039 9.91999 0.136039 9.91999H3.64004C3.71204 9.91999 3.76004 9.99199 3.76004 10.04C3.73604 10.256 3.78404 10.496 3.88004 10.712C4.09604 11.144 4.52804 11.384 4.98404 11.384H6.71204V10.04H5.00804C4.91204 10.04 4.86404 9.94399 4.91204 9.87199C4.93604 9.84799 4.96004 9.82399 4.98404 9.77599C5.15204 9.53599 5.36804 9.19999 5.60804 8.79199C5.77604 8.52799 5.92004 8.21599 6.04004 7.92799C6.06404 7.87999 6.08804 7.83199 6.11204 7.75999C6.13604 7.66399 6.18404 7.56799 6.20804 7.49599C6.23204 7.42399 6.25604 7.35199 6.28004 7.27999C6.32804 7.03999 6.35204 6.77599 6.35204 6.48799C6.35204 6.39199 6.35204 6.27199 6.32804 6.15199C6.32804 6.03199 6.30404 5.91199 6.30404 5.79199C6.30404 5.69599 6.28004 5.57599 6.25604 5.47999C6.23204 5.31199 6.20804 5.16799 6.16004 4.99999L6.13604 4.95199C6.11204 4.85599 6.08804 4.73599 6.04004 4.63999C5.94404 4.30399 5.82404 3.96799 5.70404 3.67999C5.65604 3.55999 5.60804 3.43999 5.56004 3.31999C5.48804 3.15199 5.41604 2.98399 5.34404 2.83999C5.32004 2.76799 5.27204 2.71999 5.24804 2.64799C5.22404 2.57599 5.17604 2.50399 5.15204 2.43199C5.12804 2.38399 5.10404 2.33599 5.08004 2.28799L4.86404 1.90399C4.84004 1.85599 4.88804 1.78399 4.93604 1.80799L6.25604 2.16799L6.42404 2.21599L6.61604 2.26399L6.68804 2.28799V1.49599C6.68804 1.11199 7.00004 0.799988 7.36004 0.799988C7.55204 0.799988 7.72004 0.871988 7.84004 0.991988C7.96004 1.11199 8.03204 1.27999 8.03204 1.47199V2.62399L8.17604 2.67199C8.17604 2.67199 8.20004 2.67199 8.20004 2.69599C8.22404 2.71999 8.27204 2.76799 8.34404 2.81599C8.39204 2.86399 8.44004 2.91199 8.51204 2.95999C8.63204 3.05599 8.80004 3.19999 8.96804 3.34399C9.01604 3.39199 9.06404 3.41599 9.08804 3.46399C9.30404 3.65599 9.54404 3.89599 9.78404 4.15999C9.85604 4.23199 9.90404 4.30399 9.97604 4.37599C10.048 4.44799 10.096 4.54399 10.168 4.61599C10.24 4.71199 10.336 4.83199 10.408 4.92799C10.432 4.97599 10.48 5.02399 10.504 5.09599C10.6 5.23999 10.672 5.38399 10.768 5.52799C10.792 5.59999 10.84 5.67199 10.864 5.74399C10.96 5.93599 11.032 6.12799 11.056 6.34399C11.08 6.39199 11.08 6.43999 11.08 6.46399C11.104 6.51199 11.104 6.58399 11.104 6.65599C11.128 6.87199 11.104 7.06399 11.08 7.27999C11.056 7.37599 11.032 7.44799 11.008 7.54399C10.984 7.61599 10.96 7.71199 10.912 7.80799C10.84 7.97599 10.744 8.14399 10.648 8.31199C10.624 8.35999 10.576 8.43199 10.528 8.50399C10.48 8.57599 10.432 8.62399 10.408 8.69599C10.36 8.76799 10.288 8.83999 10.24 8.91199C10.192 8.98399 10.144 9.05599 10.072 9.12799C10 9.22399 9.90404 9.31999 9.83204 9.41599C9.78404 9.46399 9.73604 9.53599 9.66404 9.58399C9.61604 9.63199 9.56804 9.70399 9.49604 9.75199C9.42404 9.82399 9.35204 9.89599 9.28004 9.94399L9.13604 10.064C9.11204 10.088 9.08804 10.088 9.06404 10.088H8.00804V11.432H9.32804C9.61604 11.432 9.90404 11.336 10.12 11.144C10.192 11.072 10.528 10.784 10.936 10.352C10.96 10.328 10.96 10.328 10.984 10.328L14.704 9.19999C14.776 9.17599 14.824 9.24799 14.824 9.31999Z" fill="#ECF1F9"/>
</svg>
