<svg width="100" height="101" viewBox="0 0 100 101" fill="none" xmlns="http://www.w3.org/2000/svg">
<g filter="url(#filter0_b_1548_62415)">
<rect y="0.5" width="100" height="100" rx="18" fill="black" fill-opacity="0.25"/>
<path d="M56.8573 34.5V39.0714M56.8573 48.2143V52.7857M56.8573 61.9286V66.5M34.0001 34.5C32.7877 34.5 31.625 34.9816 30.7677 35.8389C29.9103 36.6962 29.4287 37.859 29.4287 39.0714V45.9286C30.6411 45.9286 31.8039 46.4102 32.6612 47.2675C33.5185 48.1248 34.0001 49.2876 34.0001 50.5C34.0001 51.7124 33.5185 52.8752 32.6612 53.7325C31.8039 54.5898 30.6411 55.0714 29.4287 55.0714V61.9286C29.4287 63.141 29.9103 64.3038 30.7677 65.1611C31.625 66.0184 32.7877 66.5 34.0001 66.5H66.0001C67.2126 66.5 68.3753 66.0184 69.2326 65.1611C70.0899 64.3038 70.5716 63.141 70.5716 61.9286V55.0714C69.3591 55.0714 68.1964 54.5898 67.3391 53.7325C66.4818 52.8752 66.0001 51.7124 66.0001 50.5C66.0001 49.2876 66.4818 48.1248 67.3391 47.2675C68.1964 46.4102 69.3591 45.9286 70.5716 45.9286V39.0714C70.5716 37.859 70.0899 36.6962 69.2326 35.8389C68.3753 34.9816 67.2126 34.5 66.0001 34.5H34.0001Z" stroke="url(#paint0_linear_1548_62415)" stroke-width="2.6" stroke-linecap="round" stroke-linejoin="round"/>
<rect x="0.5" y="1" width="99" height="99" rx="17.5" stroke="#A953FF" stroke-opacity="0.1"/>
</g>
<defs>
<filter id="filter0_b_1548_62415" x="-43" y="-42.5" width="186" height="186" filterUnits="userSpaceOnUse" color-interpolation-filters="sRGB">
<feFlood flood-opacity="0" result="BackgroundImageFix"/>
<feGaussianBlur in="BackgroundImage" stdDeviation="21.5"/>
<feComposite in2="SourceAlpha" operator="in" result="effect1_backgroundBlur_1548_62415"/>
<feBlend mode="normal" in="SourceGraphic" in2="effect1_backgroundBlur_1548_62415" result="shape"/>
</filter>
<linearGradient id="paint0_linear_1548_62415" x1="30.1505" y1="50.5" x2="70.5716" y2="50.5" gradientUnits="userSpaceOnUse">
<stop stop-color="#40BAFF"/>
<stop offset="0.348958" stop-color="#687FFF"/>
<stop offset="0.677083" stop-color="#A953FF"/>
<stop offset="1" stop-color="#FB25FF"/>
</linearGradient>
</defs>
</svg>
