<svg width="22" height="19" viewBox="0 0 22 19" fill="none" xmlns="http://www.w3.org/2000/svg">
    <path d="M20.6843 0.971103C20.4762 0.794785 20.2242 0.678142 19.9551 0.633572C19.6861 0.589002 19.41 0.618171 19.1561 0.717978L1.84988 7.51485C1.54633 7.6305 1.28922 7.84273 1.11812 8.11885C0.947028 8.39497 0.871443 8.71968 0.903007 9.04298C0.931168 9.36615 1.06333 9.67148 1.27969 9.91319C1.49604 10.1549 1.78492 10.32 2.10301 10.3836L6.49988 11.2555V16.7492C6.49972 17.0464 6.58786 17.337 6.7531 17.584C6.91835 17.831 7.15325 18.0234 7.42801 18.1367C7.60985 18.2099 7.80387 18.2481 7.99988 18.2492C8.19689 18.2499 8.39206 18.2113 8.57396 18.1357C8.75587 18.06 8.92085 17.9488 9.05926 17.8086L11.4968 15.3805L15.1811 18.6242C15.4531 18.8641 15.8028 18.9973 16.1655 18.9992C16.325 19.0025 16.4838 18.9771 16.6343 18.9242C16.8817 18.846 17.1043 18.7044 17.2803 18.5137C17.4562 18.323 17.5793 18.0896 17.6374 17.8367L21.1624 2.44298C21.224 2.17735 21.212 1.89996 21.1278 1.64062C21.0436 1.38128 20.8902 1.14981 20.6843 0.971103ZM7.07176 9.83985L2.40301 8.91173L15.4905 3.76485L7.07176 9.83985ZM7.99988 16.7492V12.3055L10.3624 14.3867L7.99988 16.7492ZM16.1749 17.4992L8.44988 10.7024L19.578 2.66798L16.1749 17.4992Z"
          fill="#ECF1F9"/>
    <path d="M20.6843 0.971103C20.4762 0.794785 20.2242 0.678142 19.9551 0.633572C19.6861 0.589002 19.41 0.618171 19.1561 0.717978L1.84988 7.51485C1.54633 7.6305 1.28922 7.84273 1.11812 8.11885C0.947028 8.39497 0.871443 8.71968 0.903007 9.04298C0.931168 9.36615 1.06333 9.67148 1.27969 9.91319C1.49604 10.1549 1.78492 10.32 2.10301 10.3836L6.49988 11.2555V16.7492C6.49972 17.0464 6.58786 17.337 6.7531 17.584C6.91835 17.831 7.15325 18.0234 7.42801 18.1367C7.60985 18.2099 7.80387 18.2481 7.99988 18.2492C8.19689 18.2499 8.39206 18.2113 8.57396 18.1357C8.75587 18.06 8.92085 17.9488 9.05926 17.8086L11.4968 15.3805L15.1811 18.6242C15.4531 18.8641 15.8028 18.9973 16.1655 18.9992C16.325 19.0025 16.4838 18.9771 16.6343 18.9242C16.8817 18.846 17.1043 18.7044 17.2803 18.5137C17.4562 18.323 17.5793 18.0896 17.6374 17.8367L21.1624 2.44298C21.224 2.17735 21.212 1.89996 21.1278 1.64062C21.0436 1.38128 20.8902 1.14981 20.6843 0.971103ZM7.07176 9.83985L2.40301 8.91173L15.4905 3.76485L7.07176 9.83985ZM7.99988 16.7492V12.3055L10.3624 14.3867L7.99988 16.7492ZM16.1749 17.4992L8.44988 10.7024L19.578 2.66798L16.1749 17.4992Z"
          fill="#ECF1F9" fill-opacity="0.25"/>
</svg>
