<svg width="12" height="12" viewBox="0 0 12 12" fill="none" xmlns="http://www.w3.org/2000/svg">
<path fill-rule="evenodd" clip-rule="evenodd" d="M3.51172 1.875C3.51172 1.392 3.90372 1 4.38672 1H10.1247C10.6077 1 10.9997 1.392 10.9997 1.875V7.624C10.9997 7.85606 10.9075 8.07862 10.7434 8.24272C10.5793 8.40681 10.3568 8.499 10.1247 8.499H4.38672C4.15465 8.499 3.93209 8.40681 3.768 8.24272C3.60391 8.07862 3.51172 7.85606 3.51172 7.624V1.875ZM4.38672 1.75C4.35357 1.75 4.32177 1.76317 4.29833 1.78661C4.27489 1.81005 4.26172 1.84185 4.26172 1.875V7.624C4.26172 7.6935 4.31772 7.749 4.38672 7.749H10.1247C10.1579 7.749 10.1897 7.73583 10.2131 7.71239C10.2365 7.68895 10.2497 7.65715 10.2497 7.624V1.875C10.2497 1.84185 10.2365 1.81005 10.2131 1.78661C10.1897 1.76317 10.1579 1.75 10.1247 1.75H4.38672Z" fill="white" fill-opacity="0.9"/>
<path d="M0.998047 5.37355C0.997981 5.2586 1.02057 5.14476 1.06451 5.03855C1.10845 4.93233 1.17289 4.83581 1.25415 4.75451C1.33541 4.6732 1.43189 4.6087 1.53808 4.5647C1.64428 4.5207 1.7581 4.49805 1.87305 4.49805H2.62555C2.725 4.49805 2.82039 4.53756 2.89071 4.60788C2.96104 4.67821 3.00055 4.77359 3.00055 4.87305C3.00055 4.9725 2.96104 5.06789 2.89071 5.13821C2.82039 5.20854 2.725 5.24805 2.62555 5.24805H1.87305C1.83989 5.24805 1.8081 5.26122 1.78466 5.28466C1.76122 5.3081 1.74805 5.33989 1.74805 5.37305L1.75055 10.124C1.75055 10.193 1.80605 10.249 1.87555 10.249H6.62555C6.6587 10.249 6.69049 10.2359 6.71394 10.2124C6.73738 10.189 6.75055 10.1572 6.75055 10.124V9.36905C6.75055 9.26959 6.79006 9.17421 6.86038 9.10388C6.93071 9.03356 7.02609 8.99405 7.12555 8.99405C7.225 8.99405 7.32039 9.03356 7.39071 9.10388C7.46104 9.17421 7.50055 9.26959 7.50055 9.36905V10.124C7.50055 10.3561 7.40836 10.5787 7.24427 10.7428C7.08017 10.9069 6.85761 10.999 6.62555 10.999H1.87555C1.64348 10.999 1.42092 10.9069 1.25683 10.7428C1.09273 10.5787 1.00055 10.3561 1.00055 10.124L0.998047 5.37355Z" fill="white" fill-opacity="0.9"/>
</svg>
