<svg width="16" height="16" viewBox="0 0 16 16" fill="none" xmlns="http://www.w3.org/2000/svg">
    <path fill-rule="evenodd" clip-rule="evenodd"
          d="M16 8C16 12.4183 12.4183 16 8 16C3.58172 16 0 12.4183 0 8C0 3.58172 3.58172 0 8 0C12.4183 0 16 3.58172 16 8ZM5.73304 11.1834H4.18048C3.85424 11.1834 3.69308 11.1834 3.59481 11.1205C3.48869 11.0517 3.42383 10.9378 3.41596 10.812C3.41008 10.696 3.49065 10.5545 3.65181 10.2715L7.4853 3.51446C7.64842 3.22752 7.73097 3.08407 7.83513 3.031C7.94715 2.97402 8.08079 2.97402 8.19282 3.031C8.29698 3.08407 8.37952 3.22752 8.54264 3.51446L9.33072 4.89016L9.33475 4.89719C9.51092 5.20502 9.60027 5.36111 9.63927 5.52495C9.6825 5.70379 9.6825 5.89245 9.63927 6.07129C9.59997 6.23639 9.51152 6.39362 9.33267 6.7061L7.31905 10.2656L7.31383 10.2748C7.13647 10.5851 7.0466 10.7424 6.92204 10.8611C6.78645 10.9908 6.62333 11.0852 6.44449 11.1382C6.28137 11.1834 6.0986 11.1834 5.73304 11.1834ZM9.65381 11.1836H11.8785C12.2067 11.1836 12.3718 11.1836 12.4701 11.1188C12.5762 11.05 12.643 10.934 12.6489 10.8082C12.6546 10.6961 12.5758 10.5601 12.4213 10.2935C12.416 10.2844 12.4107 10.2752 12.4052 10.2658L11.2909 8.35949L11.2782 8.33805C11.1216 8.07322 11.0425 7.93951 10.9411 7.88783C10.8291 7.83082 10.6974 7.83082 10.5854 7.88783C10.4832 7.94087 10.4006 8.08042 10.2375 8.36145L9.12712 10.2678L9.12331 10.2743C8.96077 10.5549 8.87953 10.6951 8.88539 10.8102C8.89326 10.936 8.9581 11.0519 9.06423 11.1207C9.16053 11.1836 9.3256 11.1836 9.65381 11.1836Z"
          fill="white" fill-opacity="0.8"/>
</svg>
