<svg width="40" height="40" viewBox="0 0 40 40" fill="none" xmlns="http://www.w3.org/2000/svg">
<g filter="url(#filter0_b_5315_10124)">
<rect width="40" height="40" rx="20" fill="white" fill-opacity="0.1"/>
<path fill-rule="evenodd" clip-rule="evenodd" d="M17.9091 15.2652C17.5032 14.8906 16.8706 14.9159 16.496 15.3217L13.2652 18.8217C12.9116 19.2047 12.9116 19.7952 13.2652 20.1782L16.496 23.6783C16.8706 24.0841 17.5032 24.1094 17.909 23.7348C18.3149 23.3602 18.3402 22.7276 17.9656 22.3217L16.284 20.5L26 20.5C26.5523 20.5 27 20.0523 27 19.5C27 18.9477 26.5523 18.5 26 18.5L16.284 18.5L17.9656 16.6783C18.3402 16.2725 18.3149 15.6398 17.9091 15.2652Z" fill="#FBFBFB" fill-opacity="0.85"/>
<rect x="1" y="1" width="38" height="38" rx="19" stroke="#FBFBFB" stroke-opacity="0.85" stroke-width="2"/>
</g>
<defs>
<filter id="filter0_b_5315_10124" x="-10" y="-10" width="60" height="60" filterUnits="userSpaceOnUse" color-interpolation-filters="sRGB">
<feFlood flood-opacity="0" result="BackgroundImageFix"/>
<feGaussianBlur in="BackgroundImageFix" stdDeviation="5"/>
<feComposite in2="SourceAlpha" operator="in" result="effect1_backgroundBlur_5315_10124"/>
<feBlend mode="normal" in="SourceGraphic" in2="effect1_backgroundBlur_5315_10124" result="shape"/>
</filter>
</defs>
</svg>
