<svg width="24" height="19" viewBox="0 0 24 19" fill="none" xmlns="http://www.w3.org/2000/svg">
<path fill-rule="evenodd" clip-rule="evenodd" d="M8.09284 0.00936619C8.02562 -0.00122939 7.95729 -0.00284356 7.88964 0.00456615C6.54404 0.150166 4.49604 0.876566 3.28644 1.53257C3.20655 1.57614 3.13504 1.63357 3.07524 1.70217C2.57284 2.27657 2.11684 3.21257 1.76004 4.09897C1.39204 5.00777 1.08804 5.96777 0.916841 6.66217C0.350441 8.91817 0.0416409 11.627 4.09141e-05 14.1966C-0.00128254 14.3248 0.0295208 14.4513 0.0896409 14.5646C0.569641 15.4814 1.60484 16.331 2.64164 16.9518C3.68964 17.5806 4.91364 18.0766 5.89924 18.1726C6.01733 18.1838 6.13642 18.1676 6.24719 18.1251C6.35795 18.0827 6.45736 18.0151 6.53764 17.9278C6.78404 17.6606 7.20324 17.0366 7.52004 16.5518C7.66404 16.331 7.80004 16.1198 7.90564 15.9518C8.96484 16.1438 10.2928 16.2558 11.9728 16.2558C13.6496 16.2558 14.9776 16.1438 16.0368 15.9518C16.1424 16.1214 16.2768 16.331 16.4208 16.5502C16.7376 17.0366 17.1568 17.6606 17.4048 17.9278C17.4851 18.0151 17.5845 18.0827 17.6953 18.1251C17.8061 18.1676 17.9252 18.1838 18.0432 18.1726C19.0288 18.0766 20.2512 17.5806 21.2992 16.9518C22.336 16.331 23.3712 15.4814 23.8528 14.5646C23.9124 14.4512 23.9427 14.3247 23.9408 14.1966C23.9008 11.627 23.5904 8.91657 23.0272 6.66057C22.8009 5.78926 22.5182 4.93359 22.1808 4.09897C21.824 3.21257 21.368 2.27497 20.8672 1.70217C20.807 1.63342 20.7349 1.57598 20.6544 1.53257C19.4464 0.876566 17.3984 0.150166 16.0512 0.00456615C15.9841 -0.00270165 15.9163 -0.00108771 15.8496 0.00936619C15.5481 0.0673993 15.2653 0.19811 15.0256 0.390166C14.4889 0.822221 14.055 1.36819 13.7552 1.98857C13.1623 1.94205 12.5677 1.9191 11.9728 1.91977C11.3296 1.91977 10.7344 1.94377 10.1856 1.98697C9.88568 1.36717 9.45176 0.821762 8.91524 0.390166C8.67609 0.198344 8.39383 0.0676458 8.09284 0.00936619ZM17.6016 15.5486C17.8268 15.8953 18.0578 16.2383 18.2944 16.5774C18.928 16.4334 19.736 16.0974 20.5104 15.6334C21.3792 15.1134 22.0688 14.5134 22.4016 14.0062C22.3488 11.5966 22.0512 9.09417 21.5376 7.03337C21.3284 6.23072 21.0676 5.44241 20.7568 4.67337C20.4368 3.87657 20.0928 3.20137 19.7936 2.81417C18.7536 2.27497 17.1136 1.70537 16.0448 1.55017C16.0127 1.56967 15.9817 1.59104 15.952 1.61417C15.8195 1.71847 15.6983 1.83645 15.5904 1.96617C15.5274 2.04128 15.4671 2.11866 15.4096 2.19817C15.8976 2.28777 16.3328 2.39497 16.7184 2.51337C17.8128 2.84937 18.6016 3.31337 18.9872 3.82697C19.1095 3.98992 19.1619 4.19474 19.1331 4.39638C19.1043 4.59802 18.9966 4.77995 18.8336 4.90217C18.753 4.96268 18.6611 5.00671 18.5634 5.03174C18.4657 5.05677 18.3641 5.06231 18.2642 5.04805C18.0626 5.01924 17.8807 4.91152 17.7584 4.74857C17.664 4.62377 17.2528 4.28457 16.2672 3.98057C15.3152 3.68937 13.9152 3.45577 11.9728 3.45577C10.0304 3.45577 8.62884 3.68937 7.67844 3.98217C6.69284 4.28617 6.28164 4.62217 6.18724 4.74857C6.12673 4.82925 6.05092 4.89723 5.96413 4.94861C5.87735 5 5.78129 5.03378 5.68145 5.04805C5.47981 5.07685 5.27499 5.02438 5.11204 4.90217C5.03136 4.84165 4.96338 4.76584 4.912 4.67906C4.86061 4.59227 4.82682 4.49622 4.81256 4.39638C4.78375 4.19474 4.83623 3.98992 4.95844 3.82697C5.34404 3.31177 6.13284 2.85097 7.22724 2.51497C7.61124 2.39497 8.04644 2.28937 8.53284 2.19977C8.47533 2.11939 8.41447 2.04145 8.35044 1.96617C8.24311 1.83654 8.12245 1.71855 7.99044 1.61417C7.96026 1.59099 7.92874 1.56962 7.89604 1.55017C6.82884 1.70537 5.18884 2.27497 4.14884 2.81417C3.84804 3.20297 3.50564 3.87657 3.18404 4.67337C2.84324 5.52137 2.56004 6.41257 2.40484 7.03337C1.88964 9.09417 1.59204 11.5966 1.54084 14.0062C1.87364 14.515 2.56164 15.1134 3.43044 15.635C4.20644 16.099 5.01284 16.435 5.64804 16.5774C5.88709 16.24 6.11809 15.8969 6.34084 15.5486C5.08484 15.1022 4.41124 14.4894 3.97284 13.8334C3.91695 13.7493 3.87816 13.6551 3.85869 13.5561C3.83921 13.457 3.83944 13.3551 3.85935 13.2562C3.87926 13.1572 3.91846 13.0632 3.97472 12.9794C4.03098 12.8956 4.1032 12.8237 4.18724 12.7678C4.27129 12.7119 4.36552 12.6731 4.46456 12.6536C4.56359 12.6341 4.66549 12.6344 4.76444 12.6543C4.86339 12.6742 4.95745 12.7134 5.04125 12.7696C5.12505 12.8259 5.19695 12.8981 5.25284 12.9822C5.66884 13.6094 6.76324 14.7198 11.9728 14.7198C17.184 14.7198 18.2768 13.6094 18.6928 12.9822C18.8057 12.8124 18.9814 12.6945 19.1812 12.6543C19.3811 12.6141 19.5887 12.6549 19.7584 12.7678C19.9282 12.8806 20.0461 13.0563 20.0863 13.2562C20.1265 13.456 20.0857 13.6636 19.9728 13.8334C19.5344 14.4894 18.8592 15.1038 17.6016 15.5486ZM6.50084 8.30697C6.89124 7.88777 7.42084 7.65097 7.97284 7.64777C8.52484 7.65097 9.05444 7.88777 9.44484 8.30697C9.83364 8.72777 10.0528 9.29577 10.0528 9.88777C10.0528 10.4798 9.83364 11.0478 9.44484 11.4686C9.05444 11.8878 8.52484 12.1246 7.97284 12.1278C7.69537 12.1248 7.42148 12.0648 7.16822 11.9514C6.91497 11.838 6.68779 11.6736 6.50084 11.4686C6.10661 11.0368 5.88953 10.4724 5.89284 9.88777C5.89284 9.29577 6.11204 8.72777 6.50084 8.30697ZM15.9728 7.64777C15.4208 7.65097 14.8912 7.88777 14.5008 8.30697C14.112 8.72777 13.8928 9.29577 13.8928 9.88777C13.8928 10.4798 14.112 11.0478 14.5008 11.4686C14.8912 11.8878 15.4208 12.1246 15.9728 12.1278C16.5248 12.1246 17.0544 11.8878 17.4448 11.4686C17.8336 11.0478 18.0528 10.4798 18.0528 9.88777C18.0528 9.29577 17.8336 8.72777 17.4448 8.30697C17.2579 8.10191 17.0307 7.93756 16.7775 7.82415C16.5242 7.71073 16.2503 7.65069 15.9728 7.64777Z" fill="#262B92"/>
<path fill-rule="evenodd" clip-rule="evenodd" d="M8.09284 0.00936619C8.02562 -0.00122939 7.95729 -0.00284356 7.88964 0.00456615C6.54404 0.150166 4.49604 0.876566 3.28644 1.53257C3.20655 1.57614 3.13504 1.63357 3.07524 1.70217C2.57284 2.27657 2.11684 3.21257 1.76004 4.09897C1.39204 5.00777 1.08804 5.96777 0.916841 6.66217C0.350441 8.91817 0.0416409 11.627 4.09141e-05 14.1966C-0.00128254 14.3248 0.0295208 14.4513 0.0896409 14.5646C0.569641 15.4814 1.60484 16.331 2.64164 16.9518C3.68964 17.5806 4.91364 18.0766 5.89924 18.1726C6.01733 18.1838 6.13642 18.1676 6.24719 18.1251C6.35795 18.0827 6.45736 18.0151 6.53764 17.9278C6.78404 17.6606 7.20324 17.0366 7.52004 16.5518C7.66404 16.331 7.80004 16.1198 7.90564 15.9518C8.96484 16.1438 10.2928 16.2558 11.9728 16.2558C13.6496 16.2558 14.9776 16.1438 16.0368 15.9518C16.1424 16.1214 16.2768 16.331 16.4208 16.5502C16.7376 17.0366 17.1568 17.6606 17.4048 17.9278C17.4851 18.0151 17.5845 18.0827 17.6953 18.1251C17.8061 18.1676 17.9252 18.1838 18.0432 18.1726C19.0288 18.0766 20.2512 17.5806 21.2992 16.9518C22.336 16.331 23.3712 15.4814 23.8528 14.5646C23.9124 14.4512 23.9427 14.3247 23.9408 14.1966C23.9008 11.627 23.5904 8.91657 23.0272 6.66057C22.8009 5.78926 22.5182 4.93359 22.1808 4.09897C21.824 3.21257 21.368 2.27497 20.8672 1.70217C20.807 1.63342 20.7349 1.57598 20.6544 1.53257C19.4464 0.876566 17.3984 0.150166 16.0512 0.00456615C15.9841 -0.00270165 15.9163 -0.00108771 15.8496 0.00936619C15.5481 0.0673993 15.2653 0.19811 15.0256 0.390166C14.4889 0.822221 14.055 1.36819 13.7552 1.98857C13.1623 1.94205 12.5677 1.9191 11.9728 1.91977C11.3296 1.91977 10.7344 1.94377 10.1856 1.98697C9.88568 1.36717 9.45176 0.821762 8.91524 0.390166C8.67609 0.198344 8.39383 0.0676458 8.09284 0.00936619ZM17.6016 15.5486C17.8268 15.8953 18.0578 16.2383 18.2944 16.5774C18.928 16.4334 19.736 16.0974 20.5104 15.6334C21.3792 15.1134 22.0688 14.5134 22.4016 14.0062C22.3488 11.5966 22.0512 9.09417 21.5376 7.03337C21.3284 6.23072 21.0676 5.44241 20.7568 4.67337C20.4368 3.87657 20.0928 3.20137 19.7936 2.81417C18.7536 2.27497 17.1136 1.70537 16.0448 1.55017C16.0127 1.56967 15.9817 1.59104 15.952 1.61417C15.8195 1.71847 15.6983 1.83645 15.5904 1.96617C15.5274 2.04128 15.4671 2.11866 15.4096 2.19817C15.8976 2.28777 16.3328 2.39497 16.7184 2.51337C17.8128 2.84937 18.6016 3.31337 18.9872 3.82697C19.1095 3.98992 19.1619 4.19474 19.1331 4.39638C19.1043 4.59802 18.9966 4.77995 18.8336 4.90217C18.753 4.96268 18.6611 5.00671 18.5634 5.03174C18.4657 5.05677 18.3641 5.06231 18.2642 5.04805C18.0626 5.01924 17.8807 4.91152 17.7584 4.74857C17.664 4.62377 17.2528 4.28457 16.2672 3.98057C15.3152 3.68937 13.9152 3.45577 11.9728 3.45577C10.0304 3.45577 8.62884 3.68937 7.67844 3.98217C6.69284 4.28617 6.28164 4.62217 6.18724 4.74857C6.12673 4.82925 6.05092 4.89723 5.96413 4.94861C5.87735 5 5.78129 5.03378 5.68145 5.04805C5.47981 5.07685 5.27499 5.02438 5.11204 4.90217C5.03136 4.84165 4.96338 4.76584 4.912 4.67906C4.86061 4.59227 4.82682 4.49622 4.81256 4.39638C4.78375 4.19474 4.83623 3.98992 4.95844 3.82697C5.34404 3.31177 6.13284 2.85097 7.22724 2.51497C7.61124 2.39497 8.04644 2.28937 8.53284 2.19977C8.47533 2.11939 8.41447 2.04145 8.35044 1.96617C8.24311 1.83654 8.12245 1.71855 7.99044 1.61417C7.96026 1.59099 7.92874 1.56962 7.89604 1.55017C6.82884 1.70537 5.18884 2.27497 4.14884 2.81417C3.84804 3.20297 3.50564 3.87657 3.18404 4.67337C2.84324 5.52137 2.56004 6.41257 2.40484 7.03337C1.88964 9.09417 1.59204 11.5966 1.54084 14.0062C1.87364 14.515 2.56164 15.1134 3.43044 15.635C4.20644 16.099 5.01284 16.435 5.64804 16.5774C5.88709 16.24 6.11809 15.8969 6.34084 15.5486C5.08484 15.1022 4.41124 14.4894 3.97284 13.8334C3.91695 13.7493 3.87816 13.6551 3.85869 13.5561C3.83921 13.457 3.83944 13.3551 3.85935 13.2562C3.87926 13.1572 3.91846 13.0632 3.97472 12.9794C4.03098 12.8956 4.1032 12.8237 4.18724 12.7678C4.27129 12.7119 4.36552 12.6731 4.46456 12.6536C4.56359 12.6341 4.66549 12.6344 4.76444 12.6543C4.86339 12.6742 4.95745 12.7134 5.04125 12.7696C5.12505 12.8259 5.19695 12.8981 5.25284 12.9822C5.66884 13.6094 6.76324 14.7198 11.9728 14.7198C17.184 14.7198 18.2768 13.6094 18.6928 12.9822C18.8057 12.8124 18.9814 12.6945 19.1812 12.6543C19.3811 12.6141 19.5887 12.6549 19.7584 12.7678C19.9282 12.8806 20.0461 13.0563 20.0863 13.2562C20.1265 13.456 20.0857 13.6636 19.9728 13.8334C19.5344 14.4894 18.8592 15.1038 17.6016 15.5486ZM6.50084 8.30697C6.89124 7.88777 7.42084 7.65097 7.97284 7.64777C8.52484 7.65097 9.05444 7.88777 9.44484 8.30697C9.83364 8.72777 10.0528 9.29577 10.0528 9.88777C10.0528 10.4798 9.83364 11.0478 9.44484 11.4686C9.05444 11.8878 8.52484 12.1246 7.97284 12.1278C7.69537 12.1248 7.42148 12.0648 7.16822 11.9514C6.91497 11.838 6.68779 11.6736 6.50084 11.4686C6.10661 11.0368 5.88953 10.4724 5.89284 9.88777C5.89284 9.29577 6.11204 8.72777 6.50084 8.30697ZM15.9728 7.64777C15.4208 7.65097 14.8912 7.88777 14.5008 8.30697C14.112 8.72777 13.8928 9.29577 13.8928 9.88777C13.8928 10.4798 14.112 11.0478 14.5008 11.4686C14.8912 11.8878 15.4208 12.1246 15.9728 12.1278C16.5248 12.1246 17.0544 11.8878 17.4448 11.4686C17.8336 11.0478 18.0528 10.4798 18.0528 9.88777C18.0528 9.29577 17.8336 8.72777 17.4448 8.30697C17.2579 8.10191 17.0307 7.93756 16.7775 7.82415C16.5242 7.71073 16.2503 7.65069 15.9728 7.64777Z" fill="black" fill-opacity="0.25"/>
</svg>
