<svg width="21" height="21" viewBox="0 0 21 21" fill="none" xmlns="http://www.w3.org/2000/svg">
    <path fill-rule="evenodd" clip-rule="evenodd"
          d="M16.8616 12.6027H14.1964V20.5714H16.7143C17.7768 20.5714 18.6853 20.1942 19.4397 19.4397C20.1942 18.6853 20.5714 17.7768 20.5714 16.7143V3.85714C20.5714 2.79464 20.1942 1.88616 19.4397 1.1317C18.6853 0.377232 17.7768 0 16.7143 0H3.85714C2.79464 0 1.88616 0.377232 1.1317 1.1317C0.377232 1.88616 0 2.79464 0 3.85714V16.7143C0 17.7768 0.377232 18.6853 1.1317 19.4397C1.88616 20.1942 2.79464 20.5714 3.85714 20.5714H10.9821V12.6027H8.30357V9.49554H10.9821V7.20536C10.9821 5.90179 11.346 4.89286 12.0737 4.17857C12.8013 3.46429 13.7723 3.10714 14.9866 3.10714C16.0134 3.10714 16.808 3.14732 17.3705 3.22768V6L15.7366 6.01339C15.1295 6.01339 14.721 6.13839 14.5112 6.38839C14.3013 6.63839 14.1964 7.01339 14.1964 7.51339V9.49554H17.2634L16.8616 12.6027ZM15.3964 8.29554H18.6286L17.9164 13.8027H15.3964V19.3714H16.7143C17.457 19.3714 18.0607 19.1217 18.5912 18.5912C19.1217 18.0607 19.3714 17.457 19.3714 16.7143V3.85714C19.3714 3.11441 19.1217 2.51071 18.5912 1.98022C18.0607 1.44974 17.457 1.2 16.7143 1.2H3.85714C3.11441 1.2 2.51071 1.44974 1.98022 1.98022C1.44974 2.51071 1.2 3.11441 1.2 3.85714V16.7143C1.2 17.457 1.44974 18.0607 1.98022 18.5912C2.51071 19.1217 3.11441 19.3714 3.85714 19.3714H9.78214V13.8027H7.10357V8.29554H9.78214V7.20536C9.78214 5.67396 10.2159 4.32059 11.2331 3.3222C12.2271 2.34646 13.5221 1.90714 14.9866 1.90714C16.0327 1.90714 16.8938 1.94738 17.5402 2.03974L18.5705 2.18692V7.1902L15.7366 7.21343C15.5923 7.21343 15.4887 7.22313 15.4183 7.23444C15.4065 7.29627 15.3964 7.38705 15.3964 7.51339V8.29554Z"
          fill="#262B92"/>
    <path fill-rule="evenodd" clip-rule="evenodd"
          d="M16.8616 12.6027H14.1964V20.5714H16.7143C17.7768 20.5714 18.6853 20.1942 19.4397 19.4397C20.1942 18.6853 20.5714 17.7768 20.5714 16.7143V3.85714C20.5714 2.79464 20.1942 1.88616 19.4397 1.1317C18.6853 0.377232 17.7768 0 16.7143 0H3.85714C2.79464 0 1.88616 0.377232 1.1317 1.1317C0.377232 1.88616 0 2.79464 0 3.85714V16.7143C0 17.7768 0.377232 18.6853 1.1317 19.4397C1.88616 20.1942 2.79464 20.5714 3.85714 20.5714H10.9821V12.6027H8.30357V9.49554H10.9821V7.20536C10.9821 5.90179 11.346 4.89286 12.0737 4.17857C12.8013 3.46429 13.7723 3.10714 14.9866 3.10714C16.0134 3.10714 16.808 3.14732 17.3705 3.22768V6L15.7366 6.01339C15.1295 6.01339 14.721 6.13839 14.5112 6.38839C14.3013 6.63839 14.1964 7.01339 14.1964 7.51339V9.49554H17.2634L16.8616 12.6027ZM15.3964 8.29554H18.6286L17.9164 13.8027H15.3964V19.3714H16.7143C17.457 19.3714 18.0607 19.1217 18.5912 18.5912C19.1217 18.0607 19.3714 17.457 19.3714 16.7143V3.85714C19.3714 3.11441 19.1217 2.51071 18.5912 1.98022C18.0607 1.44974 17.457 1.2 16.7143 1.2H3.85714C3.11441 1.2 2.51071 1.44974 1.98022 1.98022C1.44974 2.51071 1.2 3.11441 1.2 3.85714V16.7143C1.2 17.457 1.44974 18.0607 1.98022 18.5912C2.51071 19.1217 3.11441 19.3714 3.85714 19.3714H9.78214V13.8027H7.10357V8.29554H9.78214V7.20536C9.78214 5.67396 10.2159 4.32059 11.2331 3.3222C12.2271 2.34646 13.5221 1.90714 14.9866 1.90714C16.0327 1.90714 16.8938 1.94738 17.5402 2.03974L18.5705 2.18692V7.1902L15.7366 7.21343C15.5923 7.21343 15.4887 7.22313 15.4183 7.23444C15.4065 7.29627 15.3964 7.38705 15.3964 7.51339V8.29554Z"
          fill="black" fill-opacity="0.25"/>
</svg>
