<svg width="57" height="166" viewBox="0 0 57 166" fill="none" xmlns="http://www.w3.org/2000/svg">
    <path d="M45 164L39.314 165.001L41.2897 159.577L45 164ZM15.5957 65.6664L15.2179 65.3389L15.5957 65.6664ZM31.0911 53.9825L30.872 54.4319L30.872 54.4319L31.0911 53.9825ZM40.5821 162.923C15.1519 152.921 3.60862 134.491 1.03961 115.563C-1.52466 96.6693 4.85336 77.2942 15.2179 65.3389L15.9735 65.994C5.79956 77.7294 -0.495585 96.8159 2.03053 115.428C4.5519 134.006 15.8625 152.126 40.9481 161.992L40.5821 162.923ZM15.2179 65.3389C20.7796 58.9235 25.5685 55.0294 29.5164 52.8295L30.0032 53.703C26.1868 55.8297 21.4852 59.6362 15.9735 65.994L15.2179 65.3389ZM29.5164 52.8295C33.3224 50.7086 36.3704 50.1444 38.5654 50.4373C40.7406 50.7277 42.1601 51.8908 42.4286 53.2706C42.5636 53.9645 42.3896 54.6675 41.9109 55.2413C41.4375 55.8089 40.6919 56.2219 39.7193 56.4185C37.7826 56.8101 34.8461 56.3693 30.872 54.4319L31.3102 53.533C35.1939 55.4263 37.8928 55.7676 39.5211 55.4384C40.331 55.2747 40.8503 54.9516 41.143 54.6007C41.4306 54.256 41.5241 53.858 41.447 53.4616C41.2912 52.6611 40.3678 51.6868 38.4331 51.4285C36.5182 51.1729 33.6893 51.6489 30.0032 53.703L29.5164 52.8295ZM32.541 9.33832C35.3513 6.88248 37.9196 5.15853 41.4897 3.45814L41.9197 4.36097C38.4348 6.02079 35.9428 7.69363 33.199 10.0913L32.541 9.33832ZM30.872 54.4319C30.4006 54.2021 29.9451 53.9568 29.5053 53.6966L30.0144 52.8359C30.4309 53.0823 30.8628 53.3149 31.3102 53.533L30.872 54.4319ZM29.5053 53.6966C22.8671 49.7698 19.8995 42.5344 20.0049 34.8015C20.1103 27.0709 23.281 18.7763 29.0021 12.601L29.7356 13.2806C24.1834 19.2737 21.1069 27.3307 21.0048 34.8152C20.9028 42.2973 23.7673 49.1404 30.0144 52.8359L29.5053 53.6966ZM55.9525 1.26378C52.8811 0.975318 50.3533 1.31312 48.5978 1.72088C47.7201 1.92475 47.0361 2.14597 46.5745 2.31477C46.3437 2.39916 46.1687 2.47039 46.053 2.51973C45.9952 2.5444 45.9522 2.56359 45.9245 2.5762C45.9107 2.58251 45.9007 2.58717 45.8945 2.59005C45.8915 2.59149 45.8894 2.59249 45.8882 2.59302C45.8877 2.59329 45.8874 2.59344 45.8873 2.59347C45.8873 2.59349 45.8873 2.59347 45.8874 2.59343C45.8874 2.59341 45.8875 2.59336 45.8876 2.59335C45.8877 2.59328 45.8878 2.59321 45.6701 2.14313C45.4523 1.69305 45.4525 1.69297 45.4526 1.69288C45.4527 1.69284 45.4529 1.69274 45.4531 1.69265C45.4534 1.69249 45.4538 1.6923 45.4543 1.69208C45.4552 1.69164 45.4564 1.69108 45.4578 1.6904C45.4606 1.68905 45.4645 1.68723 45.4693 1.68497C45.4789 1.68045 45.4925 1.67415 45.5099 1.6662C45.5448 1.65031 45.5952 1.62784 45.6607 1.5999C45.7917 1.54404 45.983 1.46631 46.231 1.3756C46.727 1.19422 47.4503 0.960803 48.3715 0.74681C50.214 0.318848 52.8508 -0.0319281 56.046 0.268165L55.9525 1.26378Z"
          fill="#BBC5FF"/>
</svg>
