<svg width="21" height="21" viewBox="0 0 21 21" fill="none" xmlns="http://www.w3.org/2000/svg">
<path fill-rule="evenodd" clip-rule="evenodd" d="M19.056 19.0544C19.5776 18.5312 19.9872 17.9024 20.2544 17.2128C20.5104 16.5504 20.6864 15.7952 20.7376 14.688C20.7888 13.5792 20.8016 13.224 20.8016 10.4C20.8016 7.576 20.7888 7.2208 20.7376 6.112C20.6864 5.0048 20.5104 4.2496 20.2544 3.5872C19.9931 2.89335 19.5836 2.26486 19.0544 1.7456C18.5351 1.21648 17.9066 0.806963 17.2128 0.5456C16.5504 0.2896 15.7952 0.1136 14.688 0.0624001C13.5792 0.0112001 13.224 0 10.4 0C7.576 0 7.2208 0.0111999 6.112 0.0639999C5.0048 0.112 4.2496 0.288 3.5872 0.5456C2.8937 0.80756 2.26535 1.21699 1.7456 1.7456C1.21699 2.26535 0.80756 2.8937 0.5456 3.5872C0.2896 4.2496 0.1136 5.0048 0.0624001 6.112C0.0112001 7.2208 0 7.576 0 10.4C0 13.224 0.0111999 13.5792 0.0639999 14.688C0.112 15.7952 0.288 16.5504 0.5456 17.2128C0.808 17.9072 1.2176 18.5344 1.7456 19.0544C2.2656 19.5824 2.8944 19.992 3.5872 20.2544C4.2496 20.5104 5.0048 20.6864 6.112 20.7376C7.2208 20.7872 7.576 20.8 10.4 20.8C13.224 20.8 13.5792 20.7872 14.688 20.736C15.7952 20.688 16.5504 20.512 17.2128 20.2544C17.9036 19.987 18.5308 19.5783 19.0544 19.0544H19.056ZM1.6 9.176V11.624C1.5968 12.9376 1.5968 13.2784 1.632 14.024C1.6736 14.9616 1.7248 15.6496 1.8816 16.168C2.032 16.6672 2.2 17.176 2.7504 17.7872C3.3008 18.4 3.8304 18.6768 4.5056 18.8816C5.1824 19.0848 6.032 19.128 6.7696 19.1616C7.6048 19.2 7.9376 19.2 9.6912 19.2H11.584C12.9312 19.2016 13.2704 19.2032 14.0256 19.168C14.9616 19.1248 15.6496 19.0736 16.1696 18.9184C16.6672 18.768 17.176 18.5984 17.7872 18.0496C18.4 17.4992 18.6768 16.968 18.8816 16.2928C19.0848 15.6176 19.1296 14.768 19.1632 14.0304C19.2 13.1952 19.2 12.864 19.2 11.1152V9.6912C19.2 7.9376 19.2 7.6064 19.1632 6.7696C19.1296 6.032 19.0848 5.1824 18.8816 4.5072C18.6784 3.8304 18.4016 3.3008 17.7872 2.7504C17.1744 2.2 16.6672 2.032 16.1696 1.8816C15.6496 1.7264 14.9616 1.6736 14.0256 1.632C13.2122 1.59857 12.398 1.5879 11.584 1.6H9.6912C7.9376 1.6 7.6048 1.6 6.7696 1.6368C6.032 1.6704 5.1824 1.7152 4.5056 1.9184C3.8304 2.1232 3.3008 2.4 2.7504 3.0128C2.2 3.6256 2.0304 4.1328 1.8816 4.632C1.7248 5.1504 1.6736 5.8384 1.632 6.776C1.5968 7.5216 1.5968 7.8624 1.6 9.176ZM10.4 6.8C9.44522 6.8 8.52955 7.17928 7.85442 7.85442C7.17929 8.52955 6.8 9.44522 6.8 10.4C6.8 11.3548 7.17929 12.2705 7.85442 12.9456C8.52955 13.6207 9.44522 14 10.4 14C11.3548 14 12.2705 13.6207 12.9456 12.9456C13.6207 12.2705 14 11.3548 14 10.4C14 9.44522 13.6207 8.52955 12.9456 7.85442C12.2705 7.17928 11.3548 6.8 10.4 6.8ZM5.2 10.4C5.2 9.02087 5.74786 7.69823 6.72304 6.72304C7.69823 5.74786 9.02087 5.2 10.4 5.2C11.7791 5.2 13.1018 5.74786 14.077 6.72304C15.0521 7.69823 15.6 9.02087 15.6 10.4C15.6 11.7791 15.0521 13.1018 14.077 14.077C13.1018 15.0521 11.7791 15.6 10.4 15.6C9.02087 15.6 7.69823 15.0521 6.72304 14.077C5.74786 13.1018 5.2 11.7791 5.2 10.4ZM15.952 6.048C16.2703 6.048 16.5755 5.92157 16.8005 5.69653C17.0256 5.47148 17.152 5.16626 17.152 4.848C17.152 4.52974 17.0256 4.22452 16.8005 3.99947C16.5755 3.77443 16.2703 3.648 15.952 3.648C15.6337 3.648 15.3285 3.77443 15.1035 3.99947C14.8784 4.22452 14.752 4.52974 14.752 4.848C14.752 5.16626 14.8784 5.47148 15.1035 5.69653C15.3285 5.92157 15.6337 6.048 15.952 6.048Z" fill="#BBC5FF"/>
</svg>
