<svg width="579" height="24" viewBox="0 0 579 24" fill="none" xmlns="http://www.w3.org/2000/svg">
<rect width="539" height="2" transform="translate(24 11)" fill="white" fill-opacity="0.8"/>
<rect width="173" height="2" transform="translate(24 11.0001)" fill="url(#paint0_linear_2651_500168)"/>
<rect width="24" height="24" rx="12" fill="#4964FE"/>
<path fill-rule="evenodd" clip-rule="evenodd" d="M18.7071 7.29289C19.0976 7.68342 19.0976 8.31658 18.7071 8.70711L10.7071 16.7071C10.3166 17.0976 9.68342 17.0976 9.29289 16.7071L5.29289 12.7071C4.90237 12.3166 4.90237 11.6834 5.29289 11.2929C5.68342 10.9024 6.31658 10.9024 6.70711 11.2929L10 14.5858L17.2929 7.29289C17.6834 6.90237 18.3166 6.90237 18.7071 7.29289Z" fill="white" fill-opacity="0.9"/>
<rect x="185" width="24" height="24" rx="12" fill="#4964FE"/>
<circle cx="197" cy="12" r="3" fill="white" fill-opacity="0.9"/>
<circle cx="382.5" cy="12" r="4" fill="#4964FE"/>
<circle cx="567" cy="12" r="4" fill="#4964FE"/>
<defs>
<linearGradient id="paint0_linear_2651_500168" x1="-1.31759e-06" y1="0.977778" x2="173" y2="0.977666" gradientUnits="userSpaceOnUse">
<stop stop-color="#40BAFF"/>
<stop offset="0.357292" stop-color="#687FFF"/>
<stop offset="0.701042" stop-color="#A953FF"/>
<stop offset="1" stop-color="#FB25FF"/>
</linearGradient>
</defs>
</svg>
