<svg width="32" height="32" viewBox="0 0 32 32" fill="none" xmlns="http://www.w3.org/2000/svg">
<rect x="0.5" y="0.5" width="31" height="31" rx="1.5" fill="#080F20"/>
<path d="M10.0833 19.1042C9.80554 18.6042 9.61109 18.1007 9.49998 17.5938C9.38887 17.0868 9.33331 16.5694 9.33331 16.0417C9.33331 14.2222 9.98956 12.6562 11.3021 11.3438C12.6146 10.0312 14.1805 9.375 16 9.375H16.8958L15.2291 7.70833L16.0416 6.89583L19.1458 10L16.0416 13.1042L15.2083 12.2708L16.8541 10.625H16C14.5139 10.625 13.2396 11.1562 12.1771 12.2188C11.1146 13.2812 10.5833 14.5556 10.5833 16.0417C10.5833 16.4444 10.6215 16.8264 10.6979 17.1875C10.7743 17.5486 10.868 17.8889 10.9791 18.2083L10.0833 19.1042ZM15.9166 25.1667L12.8125 22.0625L15.9166 18.9583L16.7291 19.7708L15.0625 21.4375H16C17.4861 21.4375 18.7604 20.9062 19.8229 19.8438C20.8854 18.7812 21.4166 17.5069 21.4166 16.0208C21.4166 15.6181 21.3819 15.2361 21.3125 14.875C21.243 14.5139 21.1389 14.1736 21 13.8542L21.8958 12.9583C22.1736 13.4583 22.3715 13.9618 22.4896 14.4688C22.6076 14.9757 22.6666 15.4931 22.6666 16.0208C22.6666 17.8403 22.0104 19.4062 20.6979 20.7188C19.3854 22.0312 17.8194 22.6875 16 22.6875H15.0625L16.7291 24.3542L15.9166 25.1667Z" fill="#ECF1F9"/>
<rect x="0.5" y="0.5" width="31" height="31" rx="1.5" stroke="#262B92"/>
<rect x="0.5" y="0.5" width="31" height="31" rx="1.5" stroke="black" stroke-opacity="0.25"/>
</svg>
