<svg width="68" height="32" viewBox="0 0 68 32" fill="none" xmlns="http://www.w3.org/2000/svg">
<path d="M4.44175 31.2806L0.867108 26.7468L6.58081 25.918L4.44175 31.2806ZM34.4586 6.49889L34.5171 6.00232L34.4586 6.49889ZM41.98 8.71015L41.4817 8.75102L41.4817 8.75102L41.98 8.71015ZM3.29581 26.8398C3.09158 19.0939 7.87726 13.5072 14.1681 10.065C20.452 6.62669 28.321 5.27252 34.5171 6.00232L34.4001 6.99545C28.4074 6.2896 20.7473 7.60499 14.6481 10.9423C8.5559 14.2758 4.1045 19.5707 4.29546 26.8134L3.29581 26.8398ZM34.5171 6.00232C38.0454 6.4179 40.4997 7.0568 42.1623 7.76648L41.7697 8.68619C40.2251 8.02686 37.8726 7.40446 34.4001 6.99545L34.5171 6.00232ZM42.1623 7.76648C43.7537 8.44579 44.6781 9.21342 45.0835 9.9627C45.2894 10.3435 45.3676 10.7339 45.3034 11.0976C45.2386 11.4639 45.0348 11.7663 44.7478 11.9626C44.1706 12.3573 43.3598 12.2782 42.7198 11.7414C42.0786 11.2037 41.6025 10.224 41.4817 8.75102L42.4783 8.66929C42.5862 9.98413 42.9963 10.6682 43.3624 10.9752C43.7298 11.2833 44.0474 11.2301 44.1833 11.1372C44.2528 11.0896 44.3016 11.0198 44.3186 10.9236C44.3361 10.8248 44.3251 10.6625 44.2039 10.4385C43.9549 9.97817 43.273 9.32787 41.7697 8.68619L42.1623 7.76648ZM58.7328 1.14381C60.2375 1.49121 61.4259 1.9005 62.8161 2.59011L62.3717 3.48594C61.0575 2.83403 59.9436 2.44967 58.5078 2.11818L58.7328 1.14381ZM41.4817 8.75102C41.4669 8.57046 41.4618 8.39142 41.4661 8.21406L42.4658 8.23861C42.4624 8.38027 42.4664 8.52384 42.4783 8.66929L41.4817 8.75102ZM41.4661 8.21406C41.5322 5.52236 43.7378 3.40369 46.6167 2.10463C49.5227 0.793347 53.2743 0.232208 56.7767 0.736572L56.6342 1.72636C53.3164 1.24859 49.7573 1.78459 47.028 3.01613C44.2717 4.25988 42.5176 6.12972 42.4658 8.23861L41.4661 8.21406ZM66.2984 6.64072C65.7923 5.80315 65.1732 5.20398 64.6795 4.81421C64.4332 4.61974 64.2199 4.47885 64.0707 4.3878C63.9961 4.34231 63.9377 4.3094 63.8995 4.28858C63.8803 4.27817 63.8663 4.2708 63.8577 4.26639C63.8535 4.26419 63.8506 4.26274 63.8491 4.26202C63.8484 4.26166 63.8481 4.26148 63.8481 4.26149C63.8481 4.26149 63.8482 4.26154 63.8484 4.26164C63.8485 4.26169 63.8486 4.26174 63.8488 4.26182C63.8488 4.26185 63.8489 4.26191 63.849 4.26193C63.8491 4.26199 63.8493 4.26206 64.0689 3.81291C64.2886 3.36376 64.2888 3.36384 64.2889 3.36391C64.289 3.36394 64.2892 3.36402 64.2893 3.36408C64.2895 3.3642 64.2898 3.36433 64.2901 3.36447C64.2907 3.36475 64.2913 3.36508 64.2921 3.36546C64.2936 3.36622 64.2955 3.36717 64.2978 3.36832C64.3024 3.37062 64.3084 3.37369 64.3159 3.37755C64.3309 3.38526 64.3516 3.39613 64.3775 3.41022C64.4292 3.4384 64.5019 3.4795 64.5914 3.5341C64.7703 3.64322 65.0172 3.80676 65.2992 4.02935C65.862 4.4737 66.5715 5.15916 67.1543 6.12357L66.2984 6.64072Z" fill="#BBC5FF"/>
</svg>
