<svg width="44" height="43" viewBox="0 0 44 43" fill="none" xmlns="http://www.w3.org/2000/svg">
<path fill-rule="evenodd" clip-rule="evenodd" d="M21.9998 42.6667C33.7819 42.6667 43.3332 33.1154 43.3332 21.3333C43.3332 9.55126 33.7819 0 21.9998 0C10.2178 0 0.666504 9.55126 0.666504 21.3333C0.666504 33.1154 10.2178 42.6667 21.9998 42.6667ZM22.123 20.0326L19.8215 33.3881C19.6995 34.0943 19.024 34.6667 18.3121 34.6667H14.6072L14.9905 32.4395H17.6768L17.9302 30.9684H15.4406L15.7671 29.0741H18.2264L19.7846 20.0326L19.4062 19.5827L19.4061 19.5826C18.3615 18.341 16.4116 16.0234 15.7856 15.2464L12.4058 15.2509L18.0517 22.0059L17.6405 24.3906L10.2382 15.5343C9.89124 15.1195 9.91315 14.2375 10.3692 13.8064L16.5901 8.51062C16.9371 8.18617 17.3866 8 17.8237 8H28.435C28.8755 8 29.2624 8.18815 29.4968 8.51605L33.6328 13.4356C34.0401 14.0074 33.8842 14.9151 33.2804 15.4864L22.7711 24.3886L23.1848 21.9881L31.1382 15.2504L27.7395 15.2593C27.5199 15.4453 27.0507 15.8459 26.4676 16.3437L26.4659 16.3452L26.4646 16.3463L26.4644 16.3465L26.464 16.3468C25.0325 17.5689 22.9175 19.3745 22.123 20.0326ZM12.9673 13.518L16.3177 13.5244L20.7982 9.72889H17.4478L12.9673 13.518ZM22.8822 10.3185C22.7781 10.1936 22.574 10.1931 22.4266 10.318L17.875 14.1699C17.7281 14.2948 17.6928 14.4968 17.7973 14.6217L21.0566 18.521C21.1607 18.6459 21.3648 18.6459 21.5121 18.521L26.0558 14.6716C26.2027 14.5472 26.2375 14.3457 26.134 14.2207L22.8822 10.3185ZM24.6853 9.72889C24.6853 9.72889 27.7997 13.3842 27.8535 13.518H31.1467L27.9894 9.72889H24.6853ZM22.3445 11.96L21.5778 13.5042C21.5719 13.5165 21.5594 13.5244 21.5465 13.5244L19.9161 13.5254C19.8877 13.5254 19.8698 13.5615 19.8897 13.5778L21.0691 14.3872C21.078 14.3946 21.08 14.4079 21.074 14.4198L20.2745 16.0983C20.2611 16.1249 20.288 16.1477 20.3138 16.1309L21.8009 15.1753C21.8123 15.1679 21.8263 15.1679 21.8352 15.1753L22.9907 16.1333C23.0106 16.1496 23.0454 16.1274 23.0415 16.1007L22.8234 14.4198C22.8214 14.4079 22.8284 14.3946 22.8398 14.3872L24.3064 13.5758C24.3323 13.5595 24.3269 13.5235 24.2985 13.5235L22.6621 13.5254C22.6497 13.5254 22.6397 13.517 22.6377 13.5052L22.4003 11.96C22.3963 11.9333 22.3579 11.9333 22.3445 11.96Z" fill="#BBC5FF" fill-opacity="0.9"/>
</svg>
