<svg width="25" height="24" viewBox="0 0 25 24" fill="none" xmlns="http://www.w3.org/2000/svg">
<path fill-rule="evenodd" clip-rule="evenodd" d="M24.5 12C24.5 18.6274 19.1274 24 12.5 24C5.87259 24 0.5 18.6274 0.5 12C0.5 5.37259 5.87259 0 12.5 0C19.1274 0 24.5 5.37259 24.5 12ZM9.09957 16.7751H6.77071C6.28137 16.7751 6.03962 16.7751 5.89221 16.6808C5.73304 16.5776 5.63574 16.4067 5.62394 16.218C5.61512 16.0441 5.73597 15.8318 5.97771 15.4073L11.728 5.27169C11.9726 4.84129 12.0965 4.6261 12.2527 4.5465C12.4207 4.46103 12.6212 4.46103 12.7892 4.5465C12.9455 4.6261 13.0693 4.84129 13.314 5.27169L14.4961 7.33525L14.5021 7.34578C14.7664 7.80753 14.9004 8.04167 14.9589 8.28742C15.0237 8.55568 15.0237 8.83868 14.9589 9.10694C14.9 9.35458 14.7673 9.59043 14.499 10.0592L11.4786 15.3985L11.4707 15.4122C11.2047 15.8777 11.0699 16.1136 10.8831 16.2917C10.6797 16.4863 10.435 16.6277 10.1667 16.7073C9.92206 16.7751 9.64789 16.7751 9.09957 16.7751ZM14.9807 16.7754H18.3178C18.8101 16.7754 19.0577 16.7754 19.2051 16.6781C19.3643 16.5749 19.4645 16.401 19.4734 16.2124C19.4819 16.0442 19.3637 15.8401 19.1319 15.4403C19.124 15.4267 19.116 15.4128 19.1078 15.3987L17.4364 12.5392L17.4173 12.5071C17.1824 12.1098 17.0638 11.9093 16.9116 11.8317C16.7436 11.7462 16.5461 11.7462 16.3781 11.8317C16.2247 11.9113 16.1009 12.1206 15.8563 12.5422L14.1907 15.4017L14.185 15.4115C13.9411 15.8324 13.8193 16.0427 13.8281 16.2153C13.8399 16.404 13.9371 16.5779 14.0964 16.6811C14.2408 16.7754 14.4884 16.7754 14.9807 16.7754Z" fill="#EE4544" fill-opacity="0.8"/>
</svg>
