<svg width="32" height="32" viewBox="0 0 32 32" fill="none" xmlns="http://www.w3.org/2000/svg">
<path fill-rule="evenodd" clip-rule="evenodd" d="M25.3335 6.66667H6.66683C5.19407 6.66667 4.00016 7.86057 4.00016 9.33333V22.6667C4.00016 24.1394 5.19407 25.3333 6.66683 25.3333H25.3335C26.8063 25.3333 28.0002 24.1394 28.0002 22.6667V9.33333C28.0002 7.86057 26.8063 6.66667 25.3335 6.66667ZM6.66683 4C3.72131 4 1.3335 6.38781 1.3335 9.33333V22.6667C1.3335 25.6122 3.72131 28 6.66683 28H25.3335C28.279 28 30.6668 25.6122 30.6668 22.6667V9.33333C30.6668 6.38781 28.279 4 25.3335 4H6.66683Z" fill="#ECF1F9"/>
<path fill-rule="evenodd" clip-rule="evenodd" d="M17.3335 15.9997C17.3335 12.3178 20.3183 9.33301 24.0002 9.33301H29.3335C30.0699 9.33301 30.6668 9.92996 30.6668 10.6663C30.6668 11.4027 30.0699 11.9997 29.3335 11.9997H24.0002C21.791 11.9997 20.0002 13.7905 20.0002 15.9997C20.0002 18.2088 21.791 19.9997 24.0002 19.9997H29.3335C30.0699 19.9997 30.6668 20.5966 30.6668 21.333C30.6668 22.0694 30.0699 22.6663 29.3335 22.6663H24.0002C20.3183 22.6663 17.3335 19.6816 17.3335 15.9997Z" fill="#ECF1F9"/>
<path d="M25.3332 16.0003C25.3332 16.7367 24.7362 17.3337 23.9998 17.3337C23.2635 17.3337 22.6665 16.7367 22.6665 16.0003C22.6665 15.2639 23.2635 14.667 23.9998 14.667C24.7362 14.667 25.3332 15.2639 25.3332 16.0003Z" fill="#ECF1F9"/>
</svg>
