<svg width="16" height="16" viewBox="0 0 16 16" fill="none" xmlns="http://www.w3.org/2000/svg">
<path d="M8.05625 11.75C8.21875 11.75 8.35313 11.6969 8.45938 11.5906C8.56563 11.4844 8.61875 11.35 8.61875 11.1875V7.79375C8.61875 7.64375 8.5625 7.51562 8.45 7.40937C8.3375 7.30312 8.20625 7.25 8.05625 7.25C7.89375 7.25 7.75938 7.30312 7.65313 7.40937C7.54688 7.51562 7.49375 7.65 7.49375 7.8125V11.2062C7.49375 11.3562 7.55 11.4844 7.6625 11.5906C7.775 11.6969 7.90625 11.75 8.05625 11.75ZM8 5.8625C8.175 5.8625 8.32187 5.80625 8.44062 5.69375C8.55937 5.58125 8.61875 5.4375 8.61875 5.2625C8.61875 5.0875 8.55937 4.9375 8.44062 4.8125C8.32187 4.6875 8.175 4.625 8 4.625C7.825 4.625 7.67813 4.6875 7.55938 4.8125C7.44063 4.9375 7.38125 5.0875 7.38125 5.2625C7.38125 5.4375 7.44063 5.58125 7.55938 5.69375C7.67813 5.80625 7.825 5.8625 8 5.8625ZM8 15.5C6.9375 15.5 5.95 15.3094 5.0375 14.9281C4.125 14.5469 3.33125 14.0188 2.65625 13.3438C1.98125 12.6687 1.45312 11.875 1.07188 10.9625C0.690625 10.05 0.5 9.0625 0.5 8C0.5 6.95 0.690625 5.96875 1.07188 5.05625C1.45312 4.14375 1.98125 3.35 2.65625 2.675C3.33125 2 4.125 1.46875 5.0375 1.08125C5.95 0.69375 6.9375 0.5 8 0.5C9.05 0.5 10.0312 0.69375 10.9438 1.08125C11.8562 1.46875 12.65 2 13.325 2.675C14 3.35 14.5312 4.14375 14.9188 5.05625C15.3063 5.96875 15.5 6.95 15.5 8C15.5 9.0625 15.3063 10.05 14.9188 10.9625C14.5312 11.875 14 12.6687 13.325 13.3438C12.65 14.0188 11.8562 14.5469 10.9438 14.9281C10.0312 15.3094 9.05 15.5 8 15.5ZM8 14.375C9.75 14.375 11.25 13.75 12.5 12.5C13.75 11.25 14.375 9.75 14.375 8C14.375 6.25 13.75 4.75 12.5 3.5C11.25 2.25 9.75 1.625 8 1.625C6.25 1.625 4.75 2.25 3.5 3.5C2.25 4.75 1.625 6.25 1.625 8C1.625 9.75 2.25 11.25 3.5 12.5C4.75 13.75 6.25 14.375 8 14.375Z" fill="#030710" fill-opacity="0.5"/>
</svg>
