<svg width="12" height="12" viewBox="0 0 12 12" fill="none" xmlns="http://www.w3.org/2000/svg">
    <path d="M1.625 11.25C1.39167 11.25 1.1875 11.1625 1.0125 10.9875C0.8375 10.8125 0.75 10.6083 0.75 10.375V1.625C0.75 1.39167 0.8375 1.1875 1.0125 1.0125C1.1875 0.8375 1.39167 0.75 1.625 0.75H5.69375V1.625H1.625V10.375H10.375V6.30625H11.25V10.375C11.25 10.6083 11.1625 10.8125 10.9875 10.9875C10.8125 11.1625 10.6083 11.25 10.375 11.25H1.625ZM4.57083 8.05625L3.95833 7.42917L9.7625 1.625H6.56875V0.75H11.25V5.43125H10.375V2.25208L4.57083 8.05625Z"
          fill="rgba(255, 255, 255, 0.7)"/>
</svg>
